<svg width="20" height="19" viewBox="0 0 20 19" fill="none" xmlns="http://www.w3.org/2000/svg">
<path d="M8.18182 19C7.94071 19 7.70948 18.8999 7.53899 18.7218C7.36851 18.5436 7.27273 18.302 7.27273 18.05C7.27273 17.798 7.36851 17.5564 7.53899 17.3782C7.70948 17.2001 7.94071 17.1 8.18182 17.1H15.7576C16.4005 17.1 17.0171 16.8331 17.4718 16.358C17.9264 15.8829 18.1818 15.2385 18.1818 14.5667V4.43333C18.1818 3.76145 17.9264 3.11709 17.4718 2.642C17.0171 2.1669 16.4005 1.9 15.7576 1.9H8.18182C7.94071 1.9 7.70948 1.79991 7.53899 1.62175C7.36851 1.44359 7.27273 1.20196 7.27273 0.95C7.27273 0.698044 7.36851 0.456408 7.53899 0.278248C7.70948 0.100089 7.94071 0 8.18182 0H15.7576C16.8827 0 17.9618 0.467082 18.7574 1.29849C19.553 2.1299 20 3.25754 20 4.43333V14.5667C20 15.7425 19.553 16.8701 18.7574 17.7015C17.9618 18.5329 16.8827 19 15.7576 19H8.18182ZM8.17091 4.6854C8.25861 4.60071 8.36141 4.53491 8.47345 4.49175C8.58549 4.44859 8.70457 4.42892 8.82388 4.43386C8.94319 4.4388 9.06041 4.46826 9.16883 4.52054C9.27725 4.57283 9.37475 4.64693 9.45576 4.7386L13.0921 8.85527C13.2473 9.03079 13.3335 9.26101 13.3335 9.5C13.3335 9.73899 13.2473 9.9692 13.0921 10.1447L9.45576 14.2614C9.37466 14.353 9.27709 14.427 9.16863 14.4791C9.06017 14.5313 8.94293 14.5606 8.82363 14.5654C8.70432 14.5703 8.58527 14.5505 8.47327 14.5072C8.36128 14.464 8.25854 14.3981 8.17091 14.3133C8.08328 14.2286 8.01249 14.1266 7.96257 14.0133C7.91264 13.8999 7.88457 13.7774 7.87996 13.6528C7.87064 13.401 7.95742 13.1556 8.12121 12.9707L10.3491 10.4487H0.909091C0.667985 10.4487 0.436754 10.3486 0.266267 10.1705C0.095779 9.99232 0 9.75069 0 9.49873C0 9.24678 0.095779 9.00514 0.266267 8.82698C0.436754 8.64882 0.667985 8.54873 0.909091 8.54873H10.3479L8.12 6.02807C8.03896 5.93642 7.97599 5.82899 7.93469 5.71191C7.89339 5.59483 7.87457 5.4704 7.87929 5.34571C7.88402 5.22103 7.91221 5.09854 7.96224 4.98524C8.01228 4.87194 8.08319 4.77006 8.17091 4.6854Z" fill="white"/>
</svg>
