<svg width="281" height="106" viewBox="0 0 281 106" fill="none" xmlns="http://www.w3.org/2000/svg">
<path d="M60.1087 89.7166C66.5633 83.1437 70.5577 74.0214 70.5577 63.9395C70.5577 43.8971 54.7641 27.6514 35.2795 27.6514C15.795 27.6514 0 43.8971 0 63.9395C0 83.9819 15.795 100.228 35.2795 100.228C41.078 100.228 46.5491 98.7897 51.3738 96.2403C51.3598 96.4311 51.3513 96.6247 51.3513 96.8198C51.3513 100.853 54.5294 104.123 58.4508 104.123C62.3722 104.123 65.5503 100.853 65.5503 96.8198C65.5517 93.373 63.2292 90.484 60.1087 89.7166ZM35.2781 86.3896C23.2443 86.3896 13.4543 76.3179 13.4543 63.941C13.4543 51.5641 23.2457 41.4923 35.2781 41.4923C47.3134 41.4923 57.1048 51.5641 57.1048 63.941C57.1048 76.3179 47.3134 86.3896 35.2781 86.3896Z" fill="white"/>
<path d="M49.9603 16.4642C49.9603 18.1291 49.9603 23.1281 49.9603 23.1281V23.6036C49.9603 25.098 48.8504 26.6429 46.9873 27.9306C43.3428 26.6631 39.4397 25.9752 35.3849 25.9752C31.5829 25.9752 27.9187 26.5779 24.4736 27.6994C22.8087 26.4594 21.8252 25.0112 21.8252 23.6036V23.1281C21.8252 23.1281 21.8252 18.4152 21.8252 16.8443C21.8252 15.4612 22.7932 16.0725 22.7932 16.0725L33.5232 22.8391C34.1794 23.2553 35.021 23.4822 35.8935 23.4822C36.7646 23.4822 37.6062 23.2553 38.2623 22.8391L49.2705 15.8977C49.2705 15.8977 49.9603 15.3543 49.9603 16.4642Z" fill="white"/>
<path d="M53.7356 10.6889C54.5603 10.1686 54.5603 9.31736 53.7356 8.79708L37.3912 0.390211C36.5665 -0.13007 35.2177 -0.13007 34.393 0.390211L18.0486 8.79708C17.2239 9.31736 17.2239 10.1686 18.0486 10.6889L34.393 21.0006C35.2177 21.5208 36.5665 21.5208 37.3912 21.0006L53.7356 10.6889Z" fill="white"/>
<path d="M53.0598 25.9722C53.0598 23.1251 53.0598 14.5838 53.0598 14.5838C53.0598 14.5838 53.0668 14.0447 52.7563 14.2225C52.5062 14.3656 51.895 14.7168 51.6787 14.909C51.43 15.1315 51.4862 15.6301 51.4862 15.6301C51.4862 15.6301 51.4862 23.3852 51.4862 25.9707C51.4862 26.1181 51.364 26.1875 51.3049 26.2236C50.7401 26.5647 50.3594 27.1963 50.3594 27.9189C50.3594 29.0057 51.215 29.8858 52.2716 29.8858C53.3281 29.8858 54.1838 29.0042 54.1838 27.9189C54.1838 27.1934 53.8016 26.5604 53.2326 26.2193C53.1778 26.1875 53.0598 26.1196 53.0598 25.9722Z" fill="white"/>
<path d="M82.9357 63.048C83.8756 61.7285 85.0291 60.6576 86.3976 59.8338C87.7647 59.01 89.2498 58.5981 90.8529 58.5981C92.7538 58.5981 94.4581 59.0765 95.9657 60.0318C97.4718 60.9885 98.6633 62.2358 99.54 63.7735C100.053 63.0046 100.651 62.3008 101.336 61.6635C102.02 61.0261 102.773 60.4827 103.595 60.0318C104.417 59.5809 105.278 59.2297 106.174 58.9768C107.072 58.7239 107.99 58.5981 108.931 58.5981C110.319 58.5981 111.617 58.8612 112.826 59.3887C114.033 59.9162 115.079 60.6417 115.967 61.5652C116.854 62.4887 117.565 63.5712 118.099 64.8126C118.633 66.0541 118.921 67.3793 118.964 68.7855C118.985 68.852 118.996 68.9402 118.996 69.05V88.1067C118.996 88.5461 118.852 88.9204 118.564 89.2282C118.276 89.5361 117.917 89.6893 117.49 89.6893C117.084 89.6893 116.726 89.5361 116.417 89.2282C116.106 88.9204 115.952 88.5475 115.952 88.1067V69.0153C115.952 67.982 115.748 67.0267 115.343 66.1466C114.937 65.2679 114.398 64.5033 113.725 63.8544C113.052 63.207 112.278 62.7011 111.401 62.3384C110.524 61.9756 109.605 61.795 108.644 61.795C107.64 61.795 106.673 61.9988 105.743 62.4049C104.813 62.8124 103.997 63.3558 103.291 64.0365C102.586 64.7187 102.02 65.5092 101.593 66.411C101.166 67.3128 100.952 68.2566 100.952 69.2466V88.1053C100.952 88.5446 100.807 88.919 100.519 89.2268C100.231 89.5346 99.873 89.6878 99.4458 89.6878C99.0187 89.6878 98.6548 89.5346 98.3556 89.2268C98.0563 88.919 97.9074 88.5461 97.9074 88.1053V69.0818C97.9074 68.0485 97.7093 67.0874 97.3145 66.1971C96.9182 65.3069 96.39 64.538 95.7282 63.8891C95.0651 63.2417 94.2965 62.73 93.4198 62.3557C92.5431 61.9829 91.6242 61.795 90.6632 61.795C89.6375 61.795 88.6596 61.993 87.7309 62.389C86.8008 62.785 85.9845 63.324 85.2792 64.0047C84.5739 64.6869 84.0077 65.4774 83.5806 66.3792C83.1535 67.2811 82.9399 68.2262 82.9399 69.2148V88.0721C82.9399 88.5114 82.7952 88.8915 82.5072 89.2095C82.2191 89.5288 81.8609 89.6878 81.4337 89.6878C81.0066 89.6878 80.6427 89.5288 80.3435 89.2095C80.0442 88.8915 79.8953 88.5114 79.8953 88.0721V60.2125C79.8953 59.7731 80.0442 59.3988 80.3435 59.091C80.6427 58.7831 81.0052 58.6299 81.4337 58.6299C81.8609 58.6299 82.2191 58.7846 82.5072 59.091C82.7952 59.3988 82.9399 59.7717 82.9399 60.2125V63.048H82.9357Z" fill="white"/>
<path d="M128.032 63.048C128.972 61.7285 130.126 60.6576 131.494 59.8338C132.861 59.01 134.346 58.5981 135.949 58.5981C137.85 58.5981 139.554 59.0765 141.062 60.0318C142.568 60.9885 143.76 62.2358 144.636 63.7735C145.149 63.0046 145.748 62.3008 146.432 61.6635C147.116 61.0261 147.869 60.4827 148.691 60.0318C149.513 59.5809 150.374 59.2297 151.271 58.9768C152.169 58.7239 153.087 58.5981 154.027 58.5981C155.416 58.5981 156.714 58.8612 157.922 59.3887C159.129 59.9162 160.176 60.6417 161.064 61.5652C161.95 62.4887 162.661 63.5712 163.195 64.8126C163.729 66.0541 164.017 67.3793 164.06 68.7855C164.082 68.852 164.093 68.9402 164.093 69.05V88.1067C164.093 88.5461 163.948 88.9204 163.66 89.2282C163.372 89.5361 163.014 89.6893 162.587 89.6893C162.181 89.6893 161.822 89.5361 161.513 89.2282C161.203 88.9204 161.048 88.5475 161.048 88.1067V69.0153C161.048 67.982 160.844 67.0267 160.438 66.1466C160.032 65.2679 159.493 64.5033 158.82 63.8544C158.147 63.207 157.371 62.7011 156.496 62.3384C155.619 61.9756 154.702 61.795 153.739 61.795C152.735 61.795 151.768 61.9988 150.838 62.4049C149.908 62.8124 149.092 63.3558 148.386 64.0365C147.681 64.7187 147.115 65.5092 146.688 66.411C146.261 67.3128 146.047 68.2566 146.047 69.2466V88.1053C146.047 88.5446 145.902 88.919 145.614 89.2268C145.326 89.5346 144.968 89.6878 144.541 89.6878C144.114 89.6878 143.75 89.5346 143.451 89.2268C143.151 88.919 143.002 88.5461 143.002 88.1053V69.0818C143.002 68.0485 142.804 67.0874 142.409 66.1971C142.013 65.3069 141.485 64.538 140.823 63.8891C140.16 63.2417 139.391 62.73 138.515 62.3557C137.638 61.9829 136.719 61.795 135.758 61.795C134.733 61.795 133.755 61.993 132.826 62.389C131.896 62.785 131.08 63.324 130.374 64.0047C129.669 64.6869 129.103 65.4774 128.676 66.3792C128.248 67.2811 128.035 68.2262 128.035 69.2148V88.0721C128.035 88.5114 127.89 88.8915 127.602 89.2095C127.314 89.5288 126.956 89.6878 126.529 89.6878C126.102 89.6878 125.738 89.5288 125.438 89.2095C125.139 88.8915 124.99 88.5114 124.99 88.0721V60.2125C124.99 59.7731 125.139 59.3988 125.438 59.091C125.738 58.7831 126.1 58.6299 126.529 58.6299C126.956 58.6299 127.314 58.7846 127.602 59.091C127.89 59.3988 128.035 59.7717 128.035 60.2125V63.048H128.032Z" fill="white"/>
<path d="M197.759 69.3622C196.574 68.4502 195.216 67.664 193.689 67.005C192.16 66.346 190.585 65.7419 188.961 65.1913C188.342 65.0164 187.673 64.8184 186.958 64.5973C186.241 64.3776 185.52 64.1247 184.794 63.8385C184.068 63.5538 183.368 63.2113 182.695 62.8168C182.022 62.4208 181.423 61.9655 180.899 61.4481C180.375 60.9322 179.959 60.3382 179.649 59.6676C179.338 58.997 179.184 58.2339 179.184 57.3755C179.205 56.1008 179.504 54.9966 180.082 54.0616C180.659 53.128 181.39 52.3475 182.278 51.7203C183.164 51.0945 184.142 50.6277 185.21 50.3199C186.278 50.0121 187.315 49.8589 188.319 49.8589C190.157 49.8589 191.85 50.1942 193.4 50.8648C194.948 51.5353 196.353 52.7392 197.615 54.4749C197.977 54.7828 198.335 54.92 198.688 54.8868C199.041 54.8536 199.334 54.7278 199.569 54.5082C199.762 54.3318 199.906 54.0847 200.002 53.7668C200.097 53.4488 200.061 53.1352 199.889 52.8274C198.757 50.8272 197.165 49.3111 195.114 48.2778C193.062 47.2445 190.786 46.7285 188.287 46.7285C186.855 46.7285 185.418 46.9713 183.976 47.454C182.533 47.9382 181.231 48.6304 180.066 49.5308C178.901 50.4326 177.956 51.5483 177.23 52.8779C176.503 54.2076 176.139 55.7077 176.139 57.3784C176.139 59.0491 176.507 60.4827 177.245 61.6808C177.983 62.8789 178.928 63.9007 180.082 64.7476C181.235 65.5945 182.518 66.2969 183.929 66.8576C185.339 67.4183 186.727 67.875 188.096 68.2262C189.398 68.6873 190.681 69.1656 191.943 69.6599C193.203 70.1542 194.33 70.7366 195.325 71.4072C196.318 72.0778 197.119 72.8799 197.728 73.8135C198.337 74.7485 198.642 75.8859 198.642 77.2256C198.642 78.7648 198.342 80.1161 197.744 81.2809C197.145 82.4458 196.36 83.4184 195.388 84.1988C194.415 84.9793 193.325 85.5675 192.118 85.962C190.911 86.358 189.699 86.556 188.481 86.556C187.327 86.556 186.199 86.4072 185.099 86.1109C183.997 85.8146 182.977 85.3969 182.037 84.8579C181.097 84.3202 180.259 83.6656 179.521 82.8967C178.783 82.1278 178.212 81.2809 177.807 80.3574C177.144 79.4571 176.461 79.1926 175.756 79.5669C175.414 79.7432 175.157 80.012 174.986 80.3748C174.814 80.7375 174.847 81.1827 175.081 81.7102C175.551 82.8317 176.225 83.8809 177.1 84.8593C177.976 85.8377 179.001 86.6846 180.177 87.3986C181.352 88.1125 182.635 88.6733 184.024 89.0808C185.414 89.4869 186.845 89.6907 188.319 89.6907C190.05 89.6907 191.722 89.3988 193.335 88.8163C194.948 88.2339 196.374 87.3986 197.615 86.3103C198.854 85.2221 199.842 83.904 200.579 82.3533C201.317 80.804 201.685 79.0726 201.685 77.1606C201.685 75.4018 201.327 73.8915 200.612 72.6269C199.895 71.3624 198.945 70.2741 197.759 69.3622Z" fill="white"/>
<path d="M231.478 62.8008C230.1 61.3831 228.487 60.2616 226.638 59.4378C224.789 58.614 222.808 58.2007 220.692 58.2007C218.597 58.2007 216.622 58.6126 214.763 59.4378C212.904 60.2616 211.28 61.3831 209.89 62.8008C208.501 64.2186 207.406 65.8893 206.605 67.8129C205.804 69.7365 205.404 71.7858 205.404 73.9623C205.404 76.1171 205.804 78.1491 206.605 80.0612C207.406 81.9732 208.501 83.6381 209.89 85.0559C211.28 86.4736 212.904 87.5951 214.763 88.4189C216.622 89.2427 218.598 89.6546 220.692 89.6546C222.808 89.6546 224.789 89.2427 226.638 88.4189C228.485 87.5951 230.1 86.4736 231.478 85.0559C232.856 83.6381 233.947 81.9732 234.748 80.0612C235.548 78.1491 235.95 76.1157 235.95 73.9623C235.95 71.7858 235.55 69.7365 234.748 67.8129C233.947 65.8893 232.856 64.2186 231.478 62.8008ZM231.959 78.8081C231.328 80.3242 230.468 81.6552 229.379 82.797C228.289 83.9401 227.002 84.8463 225.517 85.5169C224.032 86.1875 222.424 86.5228 220.693 86.5228C218.983 86.5228 217.386 86.1875 215.901 85.5169C214.416 84.8463 213.123 83.9401 212.023 82.797C210.923 81.6538 210.057 80.3242 209.427 78.8081C208.796 77.2921 208.481 75.6763 208.481 73.9623C208.481 72.2266 208.796 70.5892 209.427 69.05C210.056 67.5123 210.922 66.1769 212.023 65.0438C213.123 63.9122 214.416 63.0162 215.901 62.3572C217.386 61.6981 218.983 61.3686 220.693 61.3686C222.403 61.3686 223.999 61.6981 225.484 62.3572C226.969 63.0162 228.262 63.9122 229.362 65.0438C230.462 66.1754 231.328 67.5108 231.959 69.05C232.588 70.5892 232.904 72.2266 232.904 73.9623C232.904 75.6763 232.589 77.2907 231.959 78.8081Z" fill="white"/>
<path d="M247.135 54.0139C247.456 53.2667 247.883 52.6135 248.418 52.0527C248.952 51.492 249.577 51.0425 250.294 50.7014C251.009 50.3604 251.794 50.1797 252.65 50.158H252.778C253.226 50.158 253.6 50.0092 253.899 49.7129C254.198 49.4166 254.347 49.0481 254.347 48.6088C254.347 48.1477 254.197 47.785 253.899 47.5205C253.6 47.256 253.226 47.1245 252.778 47.1245C251.495 47.1245 250.304 47.3557 249.203 47.8168C248.103 48.2778 247.141 48.9166 246.319 49.7288C245.496 50.5425 244.839 51.5209 244.348 52.6626C243.856 53.8058 243.599 55.0472 243.579 56.3884V58.7629H239.509C239.082 58.7629 238.718 58.9118 238.419 59.208C238.119 59.5043 237.97 59.8728 237.97 60.3122C237.97 60.7515 238.119 61.1258 238.419 61.4337C238.718 61.7415 239.08 61.8947 239.509 61.8947H243.579V88.0403C243.579 88.5013 243.728 88.8872 244.027 89.1936C244.327 89.5014 244.689 89.6546 245.118 89.6546C245.545 89.6546 245.903 89.5014 246.191 89.1936C246.479 88.8857 246.624 88.5013 246.624 88.0403V61.8947H251.432C251.859 61.8947 252.223 61.7459 252.522 61.4496C252.821 61.1533 252.97 60.7732 252.97 60.3122C252.97 59.8728 252.82 59.5043 252.522 59.208C252.223 58.9118 251.859 58.7629 251.432 58.7629H246.624V56.3884C246.643 55.5531 246.815 54.7611 247.135 54.0139Z" fill="white"/>
<path d="M281 85.6772C281 87.8522 279.248 89.6544 277.133 89.6544H275.2C268.791 89.6544 263.593 84.3086 263.593 77.7183V65.7822H260.694C258.578 65.7822 256.824 63.98 256.824 61.8021C256.824 59.627 258.578 57.8248 260.694 57.8248H263.593V54.2132H263.588V50.5322C263.588 50.4614 263.592 50.392 263.601 50.3241C263.645 49.8703 263.846 49.4642 264.141 49.1578C264.483 48.8066 264.956 48.5884 265.478 48.5884H269.437C270.412 48.5884 271.214 49.35 271.315 50.3241H271.329V53.7493C271.331 53.7825 271.331 53.8129 271.331 53.8461V57.8263H277.133C279.248 57.8263 281 59.6285 281 61.8035C281 63.9815 279.248 65.7837 277.133 65.7837H271.331V77.7198C271.331 79.8948 273.083 81.6999 275.2 81.6999H277.133C279.248 81.6985 281 83.5021 281 85.6772Z" fill="white"/>
<path d="M263.601 89.4463C263.592 89.5142 263.588 89.5836 263.588 89.6544V89.4463H263.601Z" fill="white"/>
<path d="M269.722 47.3109C269.86 47.3109 269.978 47.2141 270.009 47.0782C270.245 46.0666 270.755 44.6257 271.842 43.5071C271.935 43.4117 271.956 43.2629 271.891 43.1443L268.181 36.2752C268.115 36.1523 267.976 36.0931 267.845 36.1292C267.714 36.1668 267.624 36.2911 267.629 36.4313L267.775 41.6904C267.78 41.8668 267.865 42.0359 268.009 42.1529C268.29 42.3827 268.404 42.7382 268.316 43.1024C268.237 43.4218 267.973 43.6834 267.657 43.7528C267.383 43.812 267.114 43.7485 266.902 43.5707C266.693 43.3973 266.573 43.1386 266.573 42.8625C266.573 42.5865 266.696 42.3292 266.909 42.1529C267.057 42.033 267.137 41.8682 267.143 41.6904L267.289 36.4313C267.293 36.2911 267.203 36.1668 267.072 36.1292C266.968 36.1003 266.859 36.1321 266.786 36.2073C266.766 36.2261 266.751 36.2492 266.736 36.2737L263.026 43.1429C262.961 43.2614 262.982 43.4088 263.075 43.5057C264.163 44.6243 264.673 46.0651 264.909 47.0768C264.941 47.2127 265.059 47.3095 265.195 47.3095L269.722 47.3109Z" fill="white"/>
<path d="M267.459 35.8486C267.941 35.8486 268.333 35.4462 268.333 34.9497C268.333 34.4532 267.941 34.0508 267.459 34.0508C266.976 34.0508 266.585 34.4532 266.585 34.9497C266.585 35.4462 266.976 35.8486 267.459 35.8486Z" fill="white"/>
<path d="M83.0482 96.7344L80.0752 104.124H80.2845C80.3464 104.124 80.3857 104.093 80.4026 104.034L81.3369 101.696H85.025L85.9593 104.034C85.9832 104.093 86.0211 104.124 86.0717 104.124H86.2909L83.3179 96.7344H83.0482ZM81.4282 101.475L83.0735 97.3602C83.1142 97.2662 83.1507 97.1607 83.1802 97.0451C83.214 97.1607 83.2505 97.2662 83.287 97.3602L84.9323 101.475H81.4282Z" fill="white"/>
<path d="M100.005 103.377C99.9785 103.377 99.9335 103.407 99.8717 103.469C99.8099 103.53 99.7214 103.599 99.6061 103.674C99.4909 103.75 99.3448 103.817 99.1692 103.88C98.9936 103.94 98.7772 103.972 98.5173 103.972C98.2307 103.972 97.9707 103.917 97.7375 103.809C97.5043 103.7 97.3048 103.543 97.139 103.336C96.9732 103.13 96.8453 102.875 96.7554 102.572C96.6655 102.268 96.6205 101.923 96.6205 101.534C96.6205 101.155 96.6641 100.816 96.754 100.515C96.8425 100.213 96.9718 99.9558 97.1404 99.7419C97.309 99.5281 97.5155 99.3647 97.7586 99.2506C98.0016 99.1364 98.2798 99.08 98.5945 99.08C98.8165 99.08 99.0048 99.1046 99.1622 99.1537C99.3195 99.2029 99.4488 99.2578 99.5499 99.317C99.6525 99.3763 99.7326 99.4312 99.7902 99.4804C99.8478 99.5295 99.8899 99.5541 99.918 99.5541C99.9349 99.5541 99.949 99.5497 99.9588 99.5411C99.9686 99.5324 99.9799 99.5223 99.9897 99.5122L100.056 99.4225C99.8787 99.2549 99.668 99.119 99.4221 99.015C99.1762 98.9124 98.898 98.8604 98.5847 98.8604C98.2306 98.8604 97.9159 98.9254 97.6391 99.0555C97.3638 99.1855 97.1305 99.3662 96.9395 99.5989C96.7484 99.8315 96.6037 100.113 96.5025 100.443C96.4013 100.772 96.3522 101.137 96.3522 101.535C96.3522 101.953 96.4027 102.326 96.5053 102.656C96.6079 102.985 96.7512 103.264 96.9366 103.491C97.1221 103.719 97.3455 103.893 97.6082 104.011C97.871 104.13 98.1632 104.19 98.4878 104.19C98.6817 104.19 98.8643 104.17 99.0371 104.13C99.2085 104.089 99.3659 104.037 99.5078 103.972C99.6497 103.907 99.7733 103.833 99.8801 103.748C99.9869 103.664 100.071 103.578 100.133 103.491L100.071 103.411C100.054 103.387 100.033 103.377 100.005 103.377Z" fill="white"/>
<path d="M108.318 99.5901C108.127 99.3574 107.894 99.1768 107.616 99.0482C107.338 98.921 107.02 98.856 106.663 98.856C106.305 98.856 105.988 98.9195 105.711 99.0482C105.433 99.1768 105.199 99.356 105.008 99.5901C104.817 99.8228 104.673 100.105 104.574 100.434C104.476 100.764 104.427 101.129 104.427 101.533C104.427 101.936 104.476 102.301 104.574 102.628C104.673 102.956 104.817 103.235 105.008 103.466C105.199 103.697 105.433 103.875 105.711 104C105.989 104.124 106.307 104.186 106.663 104.186C107.022 104.186 107.339 104.124 107.616 104C107.894 103.875 108.127 103.697 108.318 103.466C108.51 103.235 108.654 102.956 108.753 102.628C108.851 102.3 108.9 101.936 108.9 101.533C108.9 101.129 108.851 100.764 108.753 100.434C108.654 100.105 108.51 99.8228 108.318 99.5901ZM108.507 102.531C108.425 102.829 108.302 103.085 108.136 103.299C107.97 103.512 107.765 103.677 107.52 103.793C107.275 103.908 106.989 103.966 106.662 103.966C106.335 103.966 106.049 103.908 105.804 103.793C105.558 103.677 105.353 103.512 105.188 103.299C105.022 103.085 104.9 102.829 104.817 102.531C104.736 102.233 104.695 101.901 104.695 101.533C104.695 101.164 104.736 100.83 104.817 100.53C104.899 100.227 105.022 99.9702 105.188 99.7549C105.354 99.5395 105.559 99.3733 105.804 99.2563C106.049 99.1392 106.335 99.08 106.662 99.08C106.989 99.08 107.275 99.1392 107.52 99.2563C107.766 99.3733 107.971 99.5395 108.136 99.7549C108.302 99.9702 108.424 100.229 108.507 100.53C108.588 100.832 108.629 101.165 108.629 101.533C108.63 101.9 108.588 102.233 108.507 102.531Z" fill="white"/>
<path d="M119.737 99.3618C119.601 99.197 119.435 99.0713 119.238 98.986C119.043 98.9008 118.824 98.8574 118.582 98.8574C118.402 98.8574 118.227 98.8849 118.055 98.9384C117.885 98.9933 117.728 99.0771 117.584 99.1898C117.441 99.304 117.316 99.4456 117.209 99.6162C117.103 99.7867 117.022 99.9861 116.972 100.217C116.903 99.7867 116.757 99.4514 116.532 99.2144C116.307 98.9759 116.002 98.8574 115.617 98.8574C115.294 98.8574 114.998 98.9543 114.731 99.1465C114.464 99.3387 114.231 99.5974 114.034 99.9197L114.003 99.0467C114 98.9774 113.965 98.9412 113.901 98.9412H113.773V104.124H114.044V100.183C114.238 99.8387 114.463 99.5699 114.718 99.3734C114.974 99.1768 115.255 99.0785 115.561 99.0785C115.97 99.0785 116.281 99.2288 116.491 99.5309C116.702 99.8329 116.808 100.258 116.808 100.808V104.125H117.079V100.808C117.079 100.521 117.119 100.269 117.201 100.054C117.282 99.8387 117.391 99.6581 117.525 99.5121C117.66 99.3661 117.815 99.2577 117.991 99.1869C118.166 99.1147 118.349 99.0785 118.54 99.0785C118.973 99.0785 119.306 99.226 119.539 99.5222C119.772 99.8185 119.889 100.246 119.889 100.807V104.124H120.16V100.807C120.16 100.492 120.123 100.213 120.05 99.9717C119.977 99.7303 119.873 99.5266 119.737 99.3618Z" fill="white"/>
<path d="M127.386 98.8574C127.008 98.8574 126.662 98.9542 126.352 99.1494C126.04 99.3445 125.771 99.6104 125.546 99.9514L125.516 99.0467C125.513 98.9774 125.478 98.9412 125.413 98.9412H125.285V106H125.556V103.33C125.927 103.901 126.467 104.187 127.176 104.187C127.537 104.187 127.855 104.118 128.129 103.979C128.403 103.841 128.633 103.651 128.819 103.408C129.004 103.167 129.143 102.882 129.237 102.557C129.332 102.232 129.378 101.879 129.378 101.501C129.378 100.608 129.205 99.9428 128.859 99.5092C128.514 99.0742 128.022 98.8574 127.386 98.8574ZM128.979 102.483C128.897 102.786 128.775 103.046 128.611 103.267C128.448 103.488 128.243 103.66 127.998 103.784C127.752 103.908 127.466 103.971 127.134 103.971C126.8 103.971 126.506 103.901 126.25 103.763C125.995 103.624 125.763 103.385 125.555 103.046V100.207C125.78 99.8532 126.042 99.5771 126.345 99.3763C126.647 99.1768 126.974 99.0771 127.328 99.0771C127.904 99.0771 128.342 99.2751 128.646 99.6711C128.949 100.067 129.101 100.677 129.101 101.501C129.103 101.855 129.062 102.183 128.979 102.483Z" fill="white"/>
<path d="M134.574 96.5234H134.308V104.122H134.574V96.5234Z" fill="white"/>
<path d="M143.112 99.4384C142.935 99.2476 142.728 99.1031 142.491 99.0048C142.254 98.9066 141.999 98.8574 141.727 98.8574C141.375 98.8574 141.062 98.921 140.787 99.0467C140.511 99.1725 140.278 99.3502 140.087 99.5771C139.896 99.8055 139.751 100.076 139.65 100.389C139.549 100.703 139.5 101.048 139.5 101.427C139.5 101.865 139.553 102.255 139.659 102.596C139.764 102.937 139.914 103.226 140.111 103.46C140.306 103.696 140.544 103.875 140.82 104C141.099 104.124 141.409 104.186 141.753 104.186C141.947 104.186 142.137 104.166 142.322 104.125C142.508 104.085 142.681 104.033 142.838 103.968C142.997 103.903 143.137 103.829 143.26 103.744C143.382 103.66 143.477 103.573 143.546 103.486L143.48 103.407C143.463 103.387 143.441 103.375 143.414 103.375C143.393 103.375 143.347 103.406 143.274 103.468C143.201 103.528 143.098 103.596 142.964 103.67C142.831 103.744 142.667 103.812 142.469 103.872C142.27 103.933 142.037 103.965 141.769 103.965C141.465 103.965 141.19 103.91 140.944 103.8C140.697 103.69 140.487 103.527 140.313 103.314C140.139 103.101 140.006 102.836 139.91 102.521C139.814 102.206 139.767 101.842 139.767 101.428C139.767 101.389 139.767 101.355 139.767 101.32C139.767 101.287 139.768 101.252 139.772 101.217H143.588C143.65 101.217 143.68 101.181 143.68 101.108C143.68 100.746 143.629 100.425 143.529 100.147C143.43 99.8676 143.289 99.6292 143.112 99.4384ZM139.785 101.032C139.816 100.735 139.881 100.465 139.982 100.223C140.083 99.9818 140.213 99.7751 140.378 99.6032C140.541 99.4312 140.736 99.2997 140.962 99.2057C141.189 99.1132 141.446 99.067 141.731 99.067C141.973 99.067 142.197 99.1103 142.405 99.1985C142.613 99.2867 142.793 99.4138 142.945 99.5815C143.097 99.7491 143.216 99.9558 143.303 100.199C143.39 100.441 143.434 100.72 143.434 101.031H139.785V101.032Z" fill="white"/>
<path d="M150.689 103.582C150.668 103.582 150.636 103.603 150.592 103.645C150.547 103.687 150.49 103.734 150.418 103.783C150.346 103.832 150.261 103.877 150.159 103.92C150.058 103.962 149.942 103.984 149.81 103.984C149.7 103.984 149.599 103.966 149.506 103.933C149.412 103.9 149.332 103.846 149.263 103.773C149.194 103.699 149.141 103.605 149.1 103.491C149.059 103.377 149.038 103.239 149.038 103.079V99.3531H150.703V99.1435H149.038V97.0566H148.926C148.902 97.0566 148.884 97.0668 148.87 97.0855C148.856 97.1043 148.847 97.1246 148.844 97.1462L148.767 99.1435L147.883 99.1797V99.2736C147.883 99.3256 147.916 99.3531 147.98 99.3531H148.767V103.09C148.767 103.482 148.856 103.767 149.033 103.945C149.21 104.121 149.455 104.21 149.769 104.21C149.871 104.21 149.971 104.197 150.069 104.173C150.168 104.148 150.263 104.115 150.356 104.07C150.447 104.027 150.532 103.975 150.609 103.916C150.686 103.856 150.752 103.79 150.811 103.716L150.745 103.617C150.724 103.592 150.706 103.582 150.689 103.582Z" fill="white"/>
<path d="M158.572 99.4384C158.395 99.2476 158.189 99.1031 157.951 99.0048C157.714 98.9066 157.46 98.8574 157.187 98.8574C156.836 98.8574 156.523 98.921 156.247 99.0467C155.972 99.1725 155.739 99.3502 155.547 99.5771C155.356 99.8055 155.212 100.076 155.111 100.389C155.009 100.703 154.96 101.048 154.96 101.427C154.96 101.865 155.014 102.255 155.119 102.596C155.224 102.937 155.375 103.226 155.571 103.46C155.767 103.696 156.004 103.875 156.281 104C156.559 104.124 156.87 104.186 157.214 104.186C157.408 104.186 157.597 104.166 157.783 104.125C157.968 104.085 158.141 104.033 158.298 103.968C158.457 103.903 158.598 103.829 158.72 103.744C158.842 103.66 158.938 103.573 159.007 103.486L158.941 103.407C158.924 103.387 158.901 103.375 158.875 103.375C158.855 103.375 158.807 103.406 158.734 103.468C158.661 103.528 158.558 103.596 158.425 103.67C158.291 103.744 158.127 103.812 157.929 103.872C157.731 103.933 157.498 103.965 157.229 103.965C156.926 103.965 156.65 103.91 156.405 103.8C156.157 103.69 155.948 103.527 155.774 103.314C155.599 103.101 155.466 102.836 155.37 102.521C155.275 102.206 155.227 101.842 155.227 101.428C155.227 101.389 155.227 101.355 155.227 101.32C155.227 101.287 155.229 101.252 155.233 101.217H159.049C159.111 101.217 159.14 101.181 159.14 101.108C159.14 100.746 159.089 100.425 158.99 100.147C158.889 99.8647 158.749 99.6292 158.572 99.4384ZM155.245 101.032C155.276 100.735 155.341 100.465 155.442 100.223C155.543 99.9818 155.674 99.7751 155.838 99.6032C156.001 99.4312 156.197 99.2997 156.423 99.2057C156.649 99.1132 156.906 99.067 157.191 99.067C157.433 99.067 157.658 99.1103 157.866 99.1985C158.074 99.2867 158.254 99.4138 158.405 99.5815C158.557 99.7491 158.676 99.9558 158.764 100.199C158.851 100.441 158.894 100.72 158.894 101.031H155.245V101.032Z" fill="white"/>
<path d="M175.726 103.185C175.926 102.966 176.094 102.716 176.235 102.439C176.375 102.161 176.482 101.852 176.557 101.514C176.631 101.176 176.669 100.815 176.669 100.429C176.669 99.8506 176.588 99.3288 176.425 98.862C176.262 98.3967 176.031 97.9992 175.735 97.6712C175.438 97.3431 175.084 97.0916 174.671 96.9139C174.259 96.7376 173.803 96.6479 173.303 96.6479C172.808 96.6479 172.356 96.7376 171.944 96.9153C171.532 97.0945 171.178 97.3474 170.882 97.6755C170.585 98.0036 170.356 98.3996 170.192 98.8664C170.029 99.3317 169.948 99.852 169.948 100.427C169.948 101.005 170.029 101.527 170.192 101.991C170.355 102.455 170.585 102.851 170.882 103.179C171.178 103.507 171.532 103.758 171.944 103.933C172.356 104.108 172.809 104.196 173.303 104.196C173.582 104.196 173.848 104.169 174.099 104.113C174.351 104.056 174.59 103.974 174.814 103.865L176.506 105.731C176.554 105.78 176.618 105.805 176.7 105.805H176.94L175.05 103.74C175.302 103.589 175.527 103.404 175.726 103.185ZM174.552 103.708C174.175 103.87 173.759 103.949 173.303 103.949C172.853 103.949 172.44 103.868 172.063 103.708C171.687 103.546 171.364 103.315 171.093 103.014C170.821 102.714 170.611 102.344 170.459 101.909C170.307 101.472 170.231 100.979 170.231 100.429C170.231 99.878 170.307 99.3852 170.459 98.9487C170.611 98.5123 170.821 98.1423 171.093 97.8374C171.364 97.5324 171.687 97.2997 172.063 97.1379C172.44 96.976 172.853 96.8965 173.303 96.8965C173.759 96.8965 174.175 96.9775 174.552 97.1379C174.928 97.2997 175.251 97.5324 175.523 97.8374C175.794 98.1423 176.003 98.5123 176.151 98.9487C176.298 99.3852 176.373 99.878 176.373 100.429C176.373 100.979 176.298 101.472 176.151 101.909C176.003 102.345 175.792 102.714 175.523 103.014C175.251 103.316 174.927 103.547 174.552 103.708Z" fill="white"/>
<path d="M184.222 99.356C184.094 99.1942 183.933 99.0713 183.739 98.986C183.545 98.9008 183.316 98.8574 183.055 98.8574C182.701 98.8574 182.386 98.9268 182.109 99.067C181.834 99.2072 181.57 99.4109 181.317 99.6769L181.363 99.7506C181.39 99.7896 181.421 99.8084 181.455 99.8084C181.492 99.8084 181.547 99.7708 181.62 99.6957C181.693 99.6205 181.792 99.5367 181.914 99.4427C182.036 99.3502 182.189 99.2664 182.373 99.1898C182.557 99.1147 182.777 99.0771 183.032 99.0771C183.461 99.0771 183.785 99.2202 184.003 99.5078C184.221 99.7954 184.331 100.199 184.331 100.716V101.33C183.761 101.345 183.271 101.391 182.859 101.469C182.448 101.548 182.106 101.655 181.838 101.79C181.57 101.924 181.37 102.085 181.242 102.271C181.114 102.457 181.051 102.663 181.051 102.891C181.051 103.125 181.089 103.326 181.166 103.492C181.244 103.658 181.345 103.794 181.47 103.9C181.595 104.005 181.737 104.082 181.894 104.131C182.05 104.18 182.209 104.205 182.369 104.205C182.587 104.205 182.786 104.182 182.966 104.137C183.146 104.091 183.315 104.027 183.472 103.945C183.629 103.862 183.777 103.761 183.916 103.643C184.055 103.524 184.196 103.391 184.335 103.244L184.385 104.011C184.395 104.085 184.434 104.121 184.503 104.121H184.595V100.717C184.595 100.43 184.564 100.171 184.503 99.9428C184.446 99.713 184.35 99.5179 184.222 99.356ZM184.333 103.03C184.211 103.163 184.083 103.288 183.95 103.408C183.818 103.528 183.674 103.631 183.521 103.719C183.368 103.807 183.201 103.877 183.021 103.927C182.84 103.978 182.642 104.004 182.424 104.004C182.285 104.004 182.149 103.982 182.015 103.939C181.882 103.895 181.764 103.826 181.66 103.734C181.556 103.641 181.473 103.524 181.41 103.384C181.346 103.244 181.315 103.077 181.315 102.885C181.315 102.472 181.561 102.151 182.053 101.924C182.545 101.696 183.305 101.564 184.335 101.53V103.03H184.333Z" fill="white"/>
<path d="M195.969 98.9675C195.947 98.9849 195.931 99.008 195.92 99.0354L194.484 103.519C194.467 103.578 194.452 103.633 194.438 103.683C194.424 103.734 194.411 103.786 194.397 103.838C194.387 103.786 194.375 103.732 194.359 103.68C194.344 103.628 194.328 103.573 194.31 103.517L192.824 98.9863C192.807 98.9372 192.776 98.9126 192.732 98.9126H192.635C192.595 98.9126 192.565 98.9372 192.548 98.9863L191.046 103.517C191.029 103.573 191.013 103.627 190.997 103.678C190.982 103.728 190.968 103.78 190.954 103.832C190.944 103.78 190.932 103.728 190.92 103.678C190.907 103.627 190.893 103.573 190.876 103.517L189.44 99.034C189.433 99.0138 189.419 98.9921 189.4 98.9704C189.379 98.9502 189.35 98.9386 189.312 98.9386H189.123L190.834 104.121H191.003C191.036 104.121 191.062 104.097 191.08 104.047L192.618 99.4705C192.642 99.4011 192.662 99.3288 192.68 99.2551C192.697 99.3288 192.718 99.4011 192.742 99.4705L194.26 104.047C194.276 104.097 194.304 104.121 194.341 104.121H194.519L196.227 98.9386H196.042C196.016 98.9415 195.99 98.9502 195.969 98.9675Z" fill="white"/>
<path d="M206.773 99.3618C206.636 99.197 206.471 99.0713 206.274 98.986C206.079 98.9008 205.859 98.8574 205.618 98.8574C205.436 98.8574 205.262 98.8849 205.091 98.9384C204.921 98.9933 204.763 99.0771 204.62 99.1898C204.477 99.304 204.352 99.4456 204.245 99.6162C204.138 99.7867 204.058 99.9861 204.008 100.217C203.94 99.7867 203.793 99.4514 203.568 99.2144C203.343 98.9759 203.038 98.8574 202.653 98.8574C202.33 98.8574 202.034 98.9543 201.767 99.1465C201.5 99.3387 201.266 99.5974 201.07 99.9197L201.039 99.0467C201.035 98.9774 201.001 98.9412 200.936 98.9412H200.808V104.124H201.08V100.183C201.273 99.8387 201.498 99.5699 201.754 99.3734C202.01 99.1768 202.291 99.0785 202.597 99.0785C203.006 99.0785 203.315 99.2288 203.527 99.5309C203.738 99.8329 203.843 100.258 203.843 100.808V104.125H204.114V100.808C204.114 100.521 204.155 100.269 204.237 100.054C204.318 99.8387 204.426 99.6581 204.561 99.5121C204.696 99.3661 204.851 99.2577 205.026 99.1869C205.202 99.1147 205.384 99.0785 205.576 99.0785C206.008 99.0785 206.341 99.226 206.574 99.5222C206.808 99.8185 206.924 100.246 206.924 100.807V104.124H207.195V100.807C207.195 100.492 207.159 100.213 207.086 99.9717C207.013 99.7289 206.909 99.5266 206.773 99.3618Z" fill="white"/>
<path d="M212.758 96.8154C212.726 96.7822 212.688 96.7562 212.645 96.7359C212.603 96.7171 212.56 96.707 212.515 96.707C212.419 96.707 212.336 96.7432 212.267 96.8154C212.197 96.8877 212.162 96.9729 212.162 97.0698C212.162 97.1637 212.197 97.2475 212.267 97.3198C212.338 97.3921 212.419 97.4282 212.515 97.4282C212.56 97.4282 212.603 97.4181 212.645 97.3993C212.688 97.3805 212.726 97.353 212.758 97.3198C212.79 97.2866 212.817 97.249 212.837 97.2071C212.858 97.1652 212.867 97.1189 212.867 97.0712C212.867 97.0235 212.858 96.9758 212.837 96.9325C212.817 96.8877 212.79 96.8487 212.758 96.8154Z" fill="white"/>
<path d="M212.648 98.9414H212.383V104.124H212.648V98.9414Z" fill="white"/>
<path d="M226.545 101.754C226.409 101.655 226.254 101.573 226.08 101.507C225.906 101.44 225.729 101.378 225.549 101.32C225.369 101.262 225.191 101.204 225.018 101.147C224.844 101.089 224.689 101.02 224.553 100.937C224.417 100.855 224.307 100.754 224.223 100.635C224.14 100.517 224.098 100.369 224.098 100.193C224.098 100.045 224.13 99.9038 224.195 99.7679C224.259 99.6306 224.352 99.5121 224.47 99.411C224.589 99.3098 224.731 99.2274 224.897 99.1667C225.063 99.106 225.245 99.0742 225.446 99.0742C225.664 99.0742 225.848 99.0974 225.996 99.145C226.145 99.1927 226.267 99.2433 226.367 99.2968C226.465 99.3517 226.544 99.4023 226.599 99.45C226.655 99.4977 226.698 99.5208 226.729 99.5208C226.763 99.5208 226.788 99.5049 226.806 99.4731L226.863 99.3835C226.662 99.2014 226.448 99.0684 226.223 98.9846C225.999 98.9008 225.74 98.8589 225.446 98.8589C225.205 98.8589 224.986 98.895 224.79 98.9687C224.595 99.0424 224.426 99.1407 224.287 99.2664C224.148 99.3907 224.04 99.5338 223.963 99.6971C223.885 99.8604 223.848 100.03 223.848 100.204C223.848 100.414 223.89 100.59 223.973 100.73C224.055 100.871 224.166 100.989 224.303 101.085C224.439 101.181 224.594 101.261 224.768 101.326C224.942 101.391 225.119 101.452 225.299 101.507C225.479 101.563 225.657 101.621 225.83 101.68C226.004 101.739 226.159 101.811 226.295 101.898C226.431 101.985 226.541 102.09 226.625 102.216C226.708 102.342 226.75 102.499 226.75 102.689C226.75 102.868 226.719 103.037 226.659 103.196C226.597 103.355 226.506 103.495 226.385 103.614C226.264 103.732 226.114 103.826 225.935 103.894C225.757 103.962 225.549 103.997 225.314 103.997C225.075 103.997 224.875 103.968 224.712 103.91C224.549 103.852 224.412 103.789 224.306 103.718C224.199 103.648 224.113 103.583 224.05 103.526C223.987 103.468 223.939 103.439 223.904 103.439C223.877 103.439 223.857 103.443 223.845 103.452C223.832 103.46 223.819 103.474 223.807 103.491L223.741 103.58C223.843 103.674 223.949 103.761 224.057 103.838C224.166 103.914 224.283 103.981 224.41 104.034C224.536 104.089 224.672 104.131 224.818 104.16C224.964 104.19 225.127 104.205 225.309 104.205C225.577 104.205 225.817 104.164 226.027 104.083C226.236 104.002 226.413 103.891 226.558 103.75C226.702 103.608 226.812 103.442 226.888 103.252C226.962 103.063 227 102.861 227 102.642C227 102.433 226.958 102.255 226.875 102.112C226.791 101.972 226.681 101.851 226.545 101.754Z" fill="white"/>
<path d="M235.394 99.5901C235.203 99.3574 234.97 99.1768 234.691 99.0482C234.413 98.921 234.096 98.856 233.739 98.856C233.382 98.856 233.063 98.9195 232.786 99.0482C232.508 99.1768 232.275 99.356 232.084 99.5901C231.893 99.8243 231.748 100.105 231.649 100.434C231.551 100.764 231.502 101.129 231.502 101.533C231.502 101.936 231.551 102.301 231.649 102.628C231.748 102.955 231.893 103.235 232.084 103.466C232.275 103.697 232.508 103.875 232.786 104C233.064 104.124 233.382 104.186 233.739 104.186C234.096 104.186 234.415 104.124 234.691 104C234.97 103.875 235.203 103.697 235.394 103.466C235.585 103.235 235.73 102.956 235.828 102.628C235.926 102.3 235.977 101.936 235.977 101.533C235.977 101.129 235.928 100.764 235.828 100.434C235.73 100.105 235.585 99.8228 235.394 99.5901ZM235.582 102.531C235.501 102.829 235.377 103.085 235.211 103.299C235.045 103.512 234.84 103.677 234.596 103.793C234.35 103.908 234.065 103.966 233.737 103.966C233.41 103.966 233.125 103.908 232.879 103.793C232.633 103.677 232.428 103.512 232.263 103.299C232.098 103.085 231.975 102.829 231.893 102.531C231.811 102.233 231.77 101.901 231.77 101.533C231.77 101.164 231.811 100.83 231.893 100.53C231.974 100.227 232.098 99.9702 232.263 99.7549C232.429 99.5395 232.634 99.3733 232.879 99.2563C233.125 99.1392 233.41 99.08 233.737 99.08C234.065 99.08 234.35 99.1392 234.596 99.2563C234.84 99.3733 235.045 99.5395 235.211 99.7549C235.377 99.9702 235.501 100.229 235.582 100.53C235.664 100.832 235.704 101.165 235.704 101.533C235.706 101.9 235.665 102.233 235.582 102.531Z" fill="white"/>
<path d="M241.173 96.5234H240.907V104.122H241.173V96.5234Z" fill="white"/>
<path d="M249.924 102.868C249.68 103.218 249.4 103.492 249.09 103.69C248.778 103.888 248.439 103.987 248.075 103.987C247.829 103.987 247.616 103.948 247.435 103.868C247.252 103.789 247.1 103.676 246.979 103.527C246.859 103.378 246.769 103.198 246.711 102.984C246.653 102.77 246.624 102.528 246.624 102.258V98.9414H246.353V102.258C246.353 102.563 246.388 102.836 246.458 103.078C246.528 103.319 246.632 103.524 246.77 103.69C246.908 103.857 247.082 103.985 247.291 104.073C247.501 104.163 247.745 104.208 248.025 104.208C248.413 104.208 248.769 104.109 249.093 103.91C249.416 103.712 249.697 103.446 249.936 103.114L249.961 104.017C249.971 104.088 250.007 104.123 250.068 104.123H250.19V98.9399H249.924V102.868Z" fill="white"/>
<path d="M257.568 103.582C257.546 103.582 257.514 103.603 257.471 103.645C257.426 103.687 257.368 103.734 257.296 103.783C257.225 103.832 257.139 103.877 257.038 103.92C256.938 103.962 256.82 103.984 256.688 103.984C256.578 103.984 256.477 103.966 256.385 103.933C256.29 103.9 256.21 103.846 256.141 103.773C256.074 103.699 256.019 103.605 255.978 103.491C255.938 103.377 255.917 103.239 255.917 103.079V99.3531H257.583V99.1435H255.917V97.0566H255.804C255.78 97.0566 255.762 97.0668 255.748 97.0855C255.734 97.1043 255.726 97.1246 255.723 97.1462L255.645 99.1435L254.762 99.1797V99.2736C254.762 99.3256 254.794 99.3531 254.859 99.3531H255.645V103.09C255.645 103.482 255.734 103.767 255.911 103.945C256.088 104.121 256.334 104.21 256.647 104.21C256.75 104.21 256.85 104.197 256.948 104.173C257.046 104.148 257.142 104.115 257.235 104.07C257.326 104.027 257.41 103.975 257.487 103.916C257.565 103.856 257.631 103.79 257.69 103.716L257.624 103.617C257.604 103.592 257.584 103.582 257.568 103.582Z" fill="white"/>
<path d="M262.592 96.8154C262.56 96.7822 262.522 96.7562 262.479 96.7359C262.437 96.7171 262.394 96.707 262.349 96.707C262.253 96.707 262.17 96.7432 262.101 96.8154C262.031 96.8877 261.996 96.9729 261.996 97.0698C261.996 97.1637 262.031 97.2475 262.101 97.3198C262.172 97.3921 262.253 97.4282 262.349 97.4282C262.394 97.4282 262.437 97.4181 262.479 97.3993C262.522 97.3805 262.56 97.353 262.592 97.3198C262.624 97.2866 262.651 97.249 262.671 97.2071C262.692 97.1652 262.701 97.1189 262.701 97.0712C262.701 97.0235 262.692 96.9758 262.671 96.9325C262.651 96.8877 262.624 96.8487 262.592 96.8154Z" fill="white"/>
<path d="M262.482 98.9414H262.217V104.124H262.482V98.9414Z" fill="white"/>
<path d="M271.305 99.5901C271.114 99.3574 270.881 99.1768 270.603 99.0482C270.325 98.921 270.007 98.856 269.65 98.856C269.292 98.856 268.975 98.9195 268.698 99.0482C268.42 99.1768 268.186 99.356 267.995 99.5901C267.804 99.8228 267.659 100.105 267.561 100.434C267.463 100.764 267.414 101.129 267.414 101.533C267.414 101.936 267.463 102.301 267.561 102.628C267.659 102.955 267.804 103.235 267.995 103.466C268.186 103.697 268.42 103.875 268.698 104C268.976 104.124 269.293 104.186 269.65 104.186C270.009 104.186 270.326 104.124 270.603 104C270.881 103.875 271.114 103.697 271.305 103.466C271.496 103.235 271.641 102.956 271.74 102.628C271.838 102.3 271.888 101.936 271.888 101.533C271.888 101.129 271.839 100.764 271.74 100.434C271.641 100.105 271.496 99.8228 271.305 99.5901ZM271.495 102.531C271.414 102.829 271.29 103.085 271.124 103.299C270.958 103.512 270.753 103.677 270.509 103.793C270.263 103.908 269.978 103.966 269.65 103.966C269.323 103.966 269.038 103.908 268.792 103.793C268.546 103.677 268.341 103.512 268.176 103.299C268.011 103.085 267.888 102.829 267.806 102.531C267.724 102.233 267.683 101.901 267.683 101.533C267.683 101.164 267.724 100.83 267.806 100.53C267.887 100.227 268.011 99.9702 268.176 99.7549C268.342 99.5395 268.547 99.3733 268.792 99.2563C269.038 99.1392 269.323 99.08 269.65 99.08C269.978 99.08 270.263 99.1392 270.509 99.2563C270.753 99.3733 270.958 99.5395 271.124 99.7549C271.29 99.9702 271.414 100.229 271.495 100.53C271.577 100.832 271.617 101.165 271.617 101.533C271.617 101.9 271.577 102.233 271.495 102.531Z" fill="white"/>
<path d="M280.494 99.9876C280.424 99.7462 280.32 99.541 280.182 99.3748C280.045 99.2086 279.871 99.08 279.661 98.9918C279.452 98.9022 279.207 98.8574 278.928 98.8574C278.543 98.8574 278.187 98.9557 277.863 99.1522C277.537 99.3488 277.257 99.6133 277.023 99.9457L276.992 99.0467C276.987 98.9774 276.954 98.9412 276.889 98.9412H276.761V104.124H277.032V100.197C277.274 99.8474 277.551 99.5728 277.863 99.3748C278.175 99.1768 278.515 99.0785 278.883 99.0785C279.127 99.0785 279.341 99.1176 279.522 99.197C279.702 99.2765 279.854 99.3893 279.975 99.5381C280.095 99.687 280.185 99.8691 280.243 100.082C280.301 100.295 280.33 100.537 280.33 100.807V104.124H280.601V100.807C280.6 100.502 280.565 100.229 280.494 99.9876Z" fill="white"/>
</svg>
