<svg width="594" height="425" viewBox="0 0 594 425" fill="none" xmlns="http://www.w3.org/2000/svg">
<path d="M27.4538 86.3867C32.6812 86.3867 36.9188 82.1475 36.9188 76.918C36.9188 71.6886 32.6812 67.4493 27.4538 67.4493C22.2264 67.4493 17.9888 71.6886 17.9888 76.918C17.9888 82.1475 22.2264 86.3867 27.4538 86.3867Z" fill="#E6E6E6"/>
<path d="M55.8486 86.3867C61.0759 86.3867 65.3136 82.1475 65.3136 76.918C65.3136 71.6886 61.0759 67.4493 55.8486 67.4493C50.6212 67.4493 46.3835 71.6886 46.3835 76.918C46.3835 82.1475 50.6212 86.3867 55.8486 86.3867Z" fill="#E6E6E6"/>
<path d="M84.2438 86.3867C89.4712 86.3867 93.7088 82.1475 93.7088 76.918C93.7088 71.6886 89.4712 67.4493 84.2438 67.4493C79.0164 67.4493 74.7788 71.6886 74.7788 76.918C74.7788 82.1475 79.0164 86.3867 84.2438 86.3867Z" fill="#E6E6E6"/>
<path d="M112.639 86.3867C117.866 86.3867 122.104 82.1475 122.104 76.918C122.104 71.6886 117.866 67.4493 112.639 67.4493C107.411 67.4493 103.174 71.6886 103.174 76.918C103.174 82.1475 107.411 86.3867 112.639 86.3867Z" fill="#E6E6E6"/>
<path d="M141.034 86.3867C146.261 86.3867 150.499 82.1475 150.499 76.918C150.499 71.6886 146.261 67.4493 141.034 67.4493C135.806 67.4493 131.569 71.6886 131.569 76.918C131.569 82.1475 135.806 86.3867 141.034 86.3867Z" fill="#E6E6E6"/>
<path d="M169.429 86.3867C174.656 86.3867 178.894 82.1475 178.894 76.918C178.894 71.6886 174.656 67.4493 169.429 67.4493C164.201 67.4493 159.964 71.6886 159.964 76.918C159.964 82.1475 164.201 86.3867 169.429 86.3867Z" fill="#E6E6E6"/>
<path d="M197.824 86.3867C203.051 86.3867 207.289 82.1475 207.289 76.918C207.289 71.6886 203.051 67.4493 197.824 67.4493C192.596 67.4493 188.359 71.6886 188.359 76.918C188.359 82.1475 192.596 86.3867 197.824 86.3867Z" fill="#E6E6E6"/>
<path d="M219.696 88.4487H5.58198C4.5608 88.4475 3.58179 88.0412 2.8597 87.3188C2.13761 86.5964 1.73142 85.617 1.73022 84.5955V69.2407C1.73142 68.2191 2.13761 67.2397 2.8597 66.5174C3.58179 65.795 4.5608 65.3886 5.58198 65.3875H219.696C220.717 65.3887 221.696 65.795 222.418 66.5174C223.14 67.2397 223.546 68.2191 223.548 69.2407V84.5955C223.546 85.617 223.14 86.5964 222.418 87.3188C221.696 88.0412 220.717 88.4475 219.696 88.4487ZM5.58198 66.9288C4.96926 66.9294 4.38182 67.1732 3.94856 67.6067C3.5153 68.0401 3.2716 68.6278 3.27093 69.2407V84.5955C3.2716 85.2084 3.5153 85.7961 3.94856 86.2295C4.38182 86.663 4.96926 86.9068 5.58198 86.9074H219.696C220.309 86.9068 220.896 86.663 221.329 86.2295C221.762 85.7961 222.006 85.2084 222.007 84.5955V69.2407C222.006 68.6278 221.762 68.0401 221.329 67.6067C220.896 67.1732 220.309 66.9294 219.696 66.9288L5.58198 66.9288Z" fill="#E6E6E6"/>
<path d="M51.4034 2.21393C51.9902 2.2146 52.5527 2.44807 52.9676 2.86311C53.3824 3.27816 53.6158 3.84087 53.6165 4.42783V52.4033C53.6158 52.9903 53.3824 53.553 52.9676 53.968C52.5527 54.3831 51.9902 54.6165 51.4034 54.6172H4.42616C3.83943 54.6165 3.27692 54.3831 2.86204 53.968C2.44716 53.553 2.21378 52.9903 2.21311 52.4033V4.42787C2.21378 3.84092 2.44716 3.27819 2.86204 2.86315C3.27692 2.4481 3.83943 2.21463 4.42616 2.21396H51.4034V2.21393ZM51.4034 3.17993e-05H4.42616C3.25227 3.17993e-05 2.12646 0.466537 1.2964 1.29692C0.466334 2.12731 0 3.25356 0 4.4279V52.4033C0 53.5777 0.466334 54.7039 1.2964 55.5343C2.12646 56.3647 3.25227 56.8312 4.42616 56.8312H51.4034C52.5773 56.8312 53.7031 56.3647 54.5332 55.5343C55.3633 54.7039 55.8296 53.5777 55.8296 52.4033V4.42787C55.8296 3.25353 55.3633 2.12728 54.5332 1.29689C53.7031 0.466505 52.5773 1.84236e-06 51.4034 0V3.17993e-05Z" fill="#E6E6E6"/>
<path d="M44.0761 14.8245H12.7332C12.5873 14.8254 12.4427 14.7974 12.3077 14.7422C12.1726 14.687 12.0498 14.6056 11.9464 14.5027C11.8429 14.3998 11.7608 14.2775 11.7048 14.1428C11.6487 14.008 11.6199 13.8635 11.6199 13.7176C11.6199 13.5716 11.6487 13.4271 11.7048 13.2924C11.7608 13.1576 11.8429 13.0353 11.9464 12.9324C12.0498 12.8295 12.1726 12.7482 12.3077 12.6929C12.4427 12.6377 12.5873 12.6097 12.7332 12.6106H44.0761C44.222 12.6097 44.3666 12.6377 44.5016 12.6929C44.6367 12.7482 44.7594 12.8295 44.8629 12.9324C44.9664 13.0353 45.0485 13.1576 45.1045 13.2924C45.1606 13.4271 45.1894 13.5716 45.1894 13.7176C45.1894 13.8635 45.1606 14.008 45.1045 14.1428C45.0485 14.2775 44.9664 14.3998 44.8629 14.5027C44.7594 14.6056 44.6367 14.687 44.5016 14.7422C44.3666 14.7974 44.222 14.8254 44.0761 14.8245Z" fill="#0079F7"/>
<path d="M44.0761 22.6637H12.7332C12.5873 22.6646 12.4427 22.6367 12.3077 22.5814C12.1726 22.5262 12.0498 22.4448 11.9464 22.3419C11.8429 22.2391 11.7608 22.1167 11.7048 21.982C11.6487 21.8472 11.6199 21.7027 11.6199 21.5568C11.6199 21.4109 11.6487 21.2664 11.7048 21.1316C11.7608 20.9969 11.8429 20.8745 11.9464 20.7717C12.0498 20.6688 12.1726 20.5874 12.3077 20.5322C12.4427 20.4769 12.5873 20.449 12.7332 20.4498H44.0761C44.222 20.449 44.3666 20.4769 44.5016 20.5322C44.6367 20.5874 44.7594 20.6688 44.8629 20.7717C44.9664 20.8745 45.0485 20.9969 45.1045 21.1316C45.1606 21.2664 45.1894 21.4109 45.1894 21.5568C45.1894 21.7027 45.1606 21.8472 45.1045 21.982C45.0485 22.1167 44.9664 22.2391 44.8629 22.3419C44.7594 22.4448 44.6367 22.5262 44.5016 22.5814C44.3666 22.6367 44.222 22.6646 44.0761 22.6637Z" fill="#0079F7"/>
<path d="M44.0761 30.5021H12.7332C12.5873 30.503 12.4427 30.475 12.3077 30.4198C12.1726 30.3646 12.0498 30.2832 11.9464 30.1803C11.8429 30.0774 11.7608 29.9551 11.7048 29.8204C11.6487 29.6856 11.6199 29.5411 11.6199 29.3952C11.6199 29.2492 11.6487 29.1047 11.7048 28.97C11.7608 28.8352 11.8429 28.7129 11.9464 28.61C12.0498 28.5071 12.1726 28.4258 12.3077 28.3705C12.4427 28.3153 12.5873 28.2873 12.7332 28.2882H44.0761C44.222 28.2873 44.3666 28.3153 44.5016 28.3705C44.6367 28.4258 44.7594 28.5071 44.8629 28.61C44.9664 28.7129 45.0485 28.8352 45.1045 28.97C45.1606 29.1047 45.1894 29.2492 45.1894 29.3952C45.1894 29.5411 45.1606 29.6856 45.1045 29.8204C45.0485 29.9551 44.9664 30.0774 44.8629 30.1803C44.7594 30.2832 44.6367 30.3646 44.5016 30.4198C44.3666 30.475 44.222 30.503 44.0761 30.5021Z" fill="#0079F7"/>
<path d="M44.0761 38.3411H12.7332C12.5873 38.342 12.4427 38.314 12.3077 38.2588C12.1726 38.2036 12.0498 38.1222 11.9464 38.0193C11.8429 37.9164 11.7608 37.7941 11.7048 37.6594C11.6487 37.5246 11.6199 37.3801 11.6199 37.2342C11.6199 37.0882 11.6487 36.9437 11.7048 36.809C11.7608 36.6742 11.8429 36.5519 11.9464 36.449C12.0498 36.3461 12.1726 36.2647 12.3077 36.2095C12.4427 36.1543 12.5873 36.1263 12.7332 36.1272H44.0761C44.222 36.1263 44.3666 36.1543 44.5016 36.2095C44.6367 36.2647 44.7594 36.3461 44.8629 36.449C44.9664 36.5519 45.0485 36.6742 45.1045 36.809C45.1606 36.9437 45.1894 37.0882 45.1894 37.2342C45.1894 37.3801 45.1606 37.5246 45.1045 37.6594C45.0485 37.7941 44.9664 37.9164 44.8629 38.0193C44.7594 38.1222 44.6367 38.2036 44.5016 38.2588C44.3666 38.314 44.222 38.342 44.0761 38.3411Z" fill="#0079F7"/>
<path d="M44.0759 46.1803H12.733C12.4395 46.1803 12.1581 46.0636 11.9506 45.856C11.743 45.6484 11.6265 45.3669 11.6265 45.0733C11.6265 44.7797 11.743 44.4981 11.9506 44.2905C12.1581 44.0829 12.4395 43.9663 12.733 43.9663H44.0759C44.3694 43.9663 44.6508 44.0829 44.8583 44.2905C45.0658 44.4981 45.1824 44.7797 45.1824 45.0733C45.1824 45.3669 45.0658 45.6484 44.8583 45.856C44.6508 46.0636 44.3694 46.1803 44.0759 46.1803Z" fill="#0079F7"/>
<path d="M211.852 2.21393C212.438 2.2146 213.001 2.44807 213.416 2.86311C213.831 3.27816 214.064 3.84087 214.065 4.42783V52.4033C214.064 52.9903 213.831 53.553 213.416 53.968C213.001 54.3831 212.438 54.6165 211.852 54.6172H164.874C164.288 54.6165 163.725 54.3831 163.31 53.968C162.895 53.553 162.662 52.9903 162.661 52.4033V4.42787C162.662 3.84092 162.895 3.27819 163.31 2.86315C163.725 2.4481 164.288 2.21463 164.874 2.21396H211.852V2.21393ZM211.852 3.17993e-05H164.874C163.701 3.17993e-05 162.575 0.466537 161.745 1.29692C160.915 2.12731 160.448 3.25356 160.448 4.4279V52.4033C160.448 53.5777 160.915 54.7039 161.745 55.5343C162.575 56.3647 163.701 56.8312 164.874 56.8312H211.852C213.026 56.8312 214.151 56.3647 214.981 55.5343C215.811 54.7039 216.278 53.5777 216.278 52.4033V4.42787C216.278 3.25353 215.811 2.12728 214.981 1.29689C214.151 0.466505 213.026 0 211.852 0V3.17993e-05Z" fill="#E6E6E6"/>
<path d="M204.524 14.8245H173.181C173.035 14.8254 172.89 14.7974 172.755 14.7422C172.62 14.687 172.498 14.6056 172.394 14.5027C172.291 14.3998 172.209 14.2775 172.152 14.1428C172.096 14.008 172.068 13.8635 172.068 13.7176C172.068 13.5716 172.096 13.4271 172.152 13.2924C172.209 13.1576 172.291 13.0353 172.394 12.9324C172.498 12.8295 172.62 12.7482 172.755 12.6929C172.89 12.6377 173.035 12.6097 173.181 12.6106H204.524C204.816 12.6124 205.096 12.7298 205.302 12.9372C205.508 13.1446 205.624 13.4252 205.624 13.7176C205.624 14.01 205.508 14.2905 205.302 14.4979C205.096 14.7053 204.816 14.8227 204.524 14.8245H204.524Z" fill="#0079F7"/>
<path d="M204.524 22.6637H173.181C173.035 22.6646 172.89 22.6367 172.755 22.5814C172.62 22.5262 172.498 22.4448 172.394 22.3419C172.291 22.2391 172.209 22.1167 172.152 21.982C172.096 21.8472 172.068 21.7027 172.068 21.5568C172.068 21.4109 172.096 21.2664 172.152 21.1316C172.209 20.9969 172.291 20.8745 172.394 20.7717C172.498 20.6688 172.62 20.5874 172.755 20.5322C172.89 20.4769 173.035 20.449 173.181 20.4498H204.524C204.816 20.4516 205.096 20.5691 205.302 20.7765C205.508 20.9839 205.624 21.2644 205.624 21.5568C205.624 21.8492 205.508 22.1297 205.302 22.3371C205.096 22.5445 204.816 22.662 204.524 22.6637H204.524Z" fill="#0079F7"/>
<path d="M204.524 30.5021H173.181C173.035 30.503 172.89 30.475 172.755 30.4198C172.62 30.3646 172.498 30.2832 172.394 30.1803C172.291 30.0774 172.209 29.9551 172.152 29.8204C172.096 29.6856 172.068 29.5411 172.068 29.3952C172.068 29.2492 172.096 29.1047 172.152 28.97C172.209 28.8352 172.291 28.7129 172.394 28.61C172.498 28.5071 172.62 28.4258 172.755 28.3705C172.89 28.3153 173.035 28.2873 173.181 28.2882H204.524C204.816 28.29 205.096 28.4074 205.302 28.6148C205.508 28.8222 205.624 29.1028 205.624 29.3952C205.624 29.6876 205.508 29.9681 205.302 30.1755C205.096 30.3829 204.816 30.5003 204.524 30.5021H204.524Z" fill="#0079F7"/>
<path d="M204.524 38.3411H173.181C173.035 38.342 172.89 38.314 172.755 38.2588C172.62 38.2036 172.498 38.1222 172.394 38.0193C172.291 37.9164 172.209 37.7941 172.152 37.6594C172.096 37.5246 172.068 37.3801 172.068 37.2342C172.068 37.0882 172.096 36.9437 172.152 36.809C172.209 36.6742 172.291 36.5519 172.394 36.449C172.498 36.3461 172.62 36.2647 172.755 36.2095C172.89 36.1543 173.035 36.1263 173.181 36.1272H204.524C204.816 36.129 205.096 36.2464 205.302 36.4538C205.508 36.6612 205.624 36.9418 205.624 37.2342C205.624 37.5266 205.508 37.8071 205.302 38.0145C205.096 38.2219 204.816 38.3393 204.524 38.3411H204.524Z" fill="#0079F7"/>
<path d="M204.524 46.1803H173.181C172.888 46.1803 172.606 46.0636 172.399 45.856C172.191 45.6484 172.074 45.3669 172.074 45.0733C172.074 44.7797 172.191 44.4981 172.399 44.2905C172.606 44.0829 172.888 43.9663 173.181 43.9663H204.524C204.817 43.9663 205.099 44.0829 205.306 44.2905C205.514 44.4981 205.63 44.7797 205.63 45.0733C205.63 45.3669 205.514 45.6484 205.306 45.856C205.099 46.0636 204.817 46.1803 204.524 46.1803H204.524Z" fill="#0079F7"/>
<path d="M371.52 94.4598C372.107 94.4605 372.669 94.6939 373.084 95.109C373.499 95.524 373.733 96.0867 373.733 96.6737V144.649C373.733 145.236 373.499 145.799 373.084 146.214C372.669 146.629 372.107 146.862 371.52 146.863H324.543C323.956 146.862 323.394 146.629 322.979 146.214C322.564 145.799 322.331 145.236 322.33 144.649V96.6737C322.331 96.0868 322.564 95.524 322.979 95.109C323.394 94.694 323.956 94.4605 324.543 94.4598H371.52V94.4598ZM371.52 92.2459H324.543C323.369 92.2459 322.243 92.7124 321.413 93.5428C320.583 94.3732 320.117 95.4995 320.117 96.6738V144.649C320.117 145.824 320.583 146.95 321.413 147.78C322.243 148.611 323.369 149.077 324.543 149.077H371.52C372.694 149.077 373.82 148.611 374.65 147.78C375.48 146.95 375.946 145.824 375.946 144.649V96.6737C375.946 95.4994 375.48 94.3731 374.65 93.5428C373.82 92.7124 372.694 92.2458 371.52 92.2458V92.2459Z" fill="#0079F7"/>
<path d="M364.193 107.07H332.85C332.704 107.071 332.559 107.043 332.424 106.988C332.289 106.933 332.167 106.851 332.063 106.749C331.96 106.646 331.877 106.523 331.821 106.389C331.765 106.254 331.737 106.109 331.737 105.963C331.737 105.817 331.765 105.673 331.821 105.538C331.877 105.403 331.96 105.281 332.063 105.178C332.167 105.075 332.289 104.994 332.424 104.939C332.559 104.884 332.704 104.856 332.85 104.856H364.193C364.485 104.858 364.765 104.976 364.971 105.183C365.177 105.39 365.293 105.671 365.293 105.963C365.293 106.256 365.177 106.536 364.971 106.744C364.765 106.951 364.485 107.069 364.193 107.07Z" fill="#0079F7"/>
<path d="M364.193 114.909H332.85C332.556 114.909 332.275 114.793 332.067 114.585C331.86 114.377 331.743 114.096 331.743 113.802C331.743 113.509 331.86 113.227 332.067 113.02C332.275 112.812 332.556 112.695 332.85 112.695H364.193C364.486 112.695 364.768 112.812 364.975 113.02C365.183 113.227 365.299 113.509 365.299 113.802C365.299 114.096 365.183 114.377 364.975 114.585C364.768 114.793 364.486 114.909 364.193 114.909Z" fill="#0079F7"/>
<path d="M364.193 122.748H332.85C332.704 122.749 332.559 122.72 332.424 122.665C332.29 122.61 332.167 122.528 332.064 122.426C331.96 122.323 331.878 122.2 331.822 122.066C331.766 121.931 331.738 121.787 331.738 121.641C331.738 121.495 331.766 121.351 331.822 121.216C331.878 121.081 331.96 120.959 332.064 120.856C332.167 120.753 332.29 120.672 332.424 120.617C332.559 120.561 332.704 120.533 332.85 120.534H364.193C364.485 120.536 364.765 120.653 364.971 120.861C365.177 121.068 365.292 121.348 365.292 121.641C365.292 121.933 365.177 122.214 364.971 122.421C364.765 122.629 364.485 122.746 364.193 122.748Z" fill="#0079F7"/>
<path d="M364.193 130.587H332.85C332.704 130.588 332.559 130.56 332.424 130.504C332.289 130.449 332.167 130.368 332.063 130.265C331.96 130.162 331.877 130.04 331.821 129.905C331.765 129.77 331.737 129.626 331.737 129.48C331.737 129.334 331.765 129.189 331.821 129.055C331.877 128.92 331.96 128.798 332.063 128.695C332.167 128.592 332.289 128.51 332.424 128.455C332.559 128.4 332.704 128.372 332.85 128.373H364.193C364.485 128.375 364.765 128.492 364.971 128.699C365.177 128.907 365.293 129.187 365.293 129.48C365.293 129.772 365.177 130.053 364.971 130.26C364.765 130.467 364.485 130.585 364.193 130.587Z" fill="#0079F7"/>
<path d="M364.193 138.426H332.85C332.704 138.427 332.559 138.399 332.424 138.344C332.289 138.288 332.167 138.207 332.063 138.104C331.96 138.001 331.877 137.879 331.821 137.744C331.765 137.609 331.737 137.465 331.737 137.319C331.737 137.173 331.765 137.029 331.821 136.894C331.877 136.759 331.96 136.637 332.063 136.534C332.167 136.431 332.289 136.35 332.424 136.294C332.559 136.239 332.704 136.211 332.85 136.212H364.193C364.485 136.214 364.765 136.331 364.971 136.539C365.177 136.746 365.293 137.027 365.293 137.319C365.293 137.611 365.177 137.892 364.971 138.099C364.765 138.307 364.485 138.424 364.193 138.426Z" fill="#0079F7"/>
<path d="M132.242 56.831H84.035C82.7313 56.8295 81.4815 56.3107 80.5596 55.3885C79.6378 54.4663 79.1192 53.216 79.1177 51.9118V17.4034C79.1191 16.0991 79.6376 14.8487 80.5595 13.9264C81.4813 13.004 82.7312 12.4852 84.035 12.4836H132.242C133.546 12.4851 134.796 13.0039 135.718 13.9262C136.64 14.8485 137.159 16.099 137.16 17.4034V51.9118C137.159 53.2161 136.64 54.4665 135.718 55.3887C134.796 56.3109 133.546 56.8296 132.242 56.831ZM84.035 14.6976C83.3179 14.6985 82.6306 14.9838 82.1236 15.4911C81.6166 15.9984 81.3315 16.6861 81.3308 17.4034V51.9118C81.3315 52.6291 81.6167 53.3167 82.1237 53.8239C82.6306 54.3311 83.318 54.6163 84.035 54.6171H132.242C132.959 54.6163 133.647 54.3311 134.154 53.8239C134.661 53.3168 134.946 52.6291 134.947 51.9118V17.4034C134.946 16.686 134.661 15.9983 134.154 15.4911C133.647 14.9838 132.959 14.6984 132.242 14.6976H84.035Z" fill="#E6E6E6"/>
<path d="M123.81 27.9258H92.4672C92.1749 27.924 91.8952 27.8066 91.6891 27.5992C91.4831 27.3918 91.3674 27.1113 91.3674 26.8189C91.3674 26.5265 91.4831 26.2459 91.6891 26.0385C91.8952 25.8311 92.1749 25.7137 92.4672 25.7119H123.81C123.956 25.711 124.101 25.739 124.236 25.7942C124.371 25.8495 124.493 25.9309 124.597 26.0337C124.7 26.1366 124.783 26.259 124.839 26.3937C124.895 26.5284 124.923 26.6729 124.923 26.8189C124.923 26.9648 124.895 27.1093 124.839 27.2441C124.783 27.3788 124.7 27.5012 124.597 27.604C124.493 27.7069 124.371 27.7883 124.236 27.8435C124.101 27.8988 123.956 27.9267 123.81 27.9258Z" fill="#0079F7"/>
<path d="M123.81 35.7647H92.4672C92.1749 35.7629 91.8952 35.6455 91.6891 35.4381C91.4831 35.2307 91.3674 34.9502 91.3674 34.6578C91.3674 34.3653 91.4831 34.0848 91.6891 33.8774C91.8952 33.67 92.1749 33.5526 92.4672 33.5508H123.81C123.956 33.5499 124.101 33.5779 124.236 33.6331C124.371 33.6883 124.493 33.7697 124.597 33.8726C124.7 33.9755 124.783 34.0978 124.839 34.2326C124.895 34.3673 124.923 34.5118 124.923 34.6578C124.923 34.8037 124.895 34.9482 124.839 35.0829C124.783 35.2177 124.7 35.34 124.597 35.4429C124.493 35.5458 124.371 35.6272 124.236 35.6824C124.101 35.7376 123.956 35.7656 123.81 35.7647Z" fill="#0079F7"/>
<path d="M123.81 43.6032H92.4672C92.1749 43.6014 91.8952 43.484 91.6891 43.2766C91.4831 43.0692 91.3674 42.7887 91.3674 42.4963C91.3674 42.2038 91.4831 41.9233 91.6891 41.7159C91.8952 41.5085 92.1749 41.3911 92.4672 41.3893H123.81C123.956 41.3884 124.101 41.4164 124.236 41.4716C124.371 41.5268 124.493 41.6082 124.597 41.7111C124.7 41.814 124.783 41.9363 124.839 42.0711C124.895 42.2058 124.923 42.3503 124.923 42.4963C124.923 42.6422 124.895 42.7867 124.839 42.9214C124.783 43.0562 124.7 43.1785 124.597 43.2814C124.493 43.3843 124.371 43.4657 124.236 43.5209C124.101 43.5761 123.956 43.6041 123.81 43.6032Z" fill="#0079F7"/>
<path d="M292.202 75.9535L245.902 62.5214C244.651 62.1567 243.595 61.3102 242.966 60.1676C242.337 59.025 242.188 57.6797 242.549 56.4267L252.157 23.2838C252.521 22.0315 253.368 20.975 254.51 20.3461C255.652 19.7171 256.997 19.5671 258.249 19.9289L304.549 33.361C305.801 33.7257 306.857 34.5723 307.486 35.715C308.114 36.8577 308.264 38.2032 307.903 39.4564L298.295 72.5993C297.93 73.8515 297.084 74.9079 295.942 75.5367C294.8 76.1655 293.455 76.3154 292.202 75.9535ZM257.633 22.0552C256.944 21.8562 256.204 21.9388 255.576 22.2847C254.948 22.6307 254.483 23.2117 254.282 23.9004L244.675 57.0434C244.476 57.7324 244.558 58.4723 244.904 59.1007C245.25 59.729 245.83 60.1945 246.519 60.3951L292.818 73.8272C293.507 74.0263 294.247 73.9439 294.875 73.5981C295.503 73.2523 295.969 72.6713 296.169 71.9826L305.777 38.8397C305.976 38.1505 305.893 37.4105 305.548 36.7821C305.202 36.1536 304.621 35.688 303.933 35.4874L257.633 22.0552Z" fill="#E6E6E6"/>
<path d="M292.152 45.8424L262.049 37.1092C261.768 37.027 261.53 36.8365 261.389 36.5795C261.248 36.3225 261.215 36.02 261.296 35.7384C261.378 35.4567 261.568 35.219 261.825 35.0774C262.081 34.9358 262.384 34.9018 262.665 34.9829L292.768 43.7161C293.05 43.7978 293.288 43.9883 293.429 44.2455C293.571 44.5027 293.604 44.8056 293.523 45.0876C293.441 45.3695 293.25 45.6075 292.993 45.749C292.736 45.8906 292.433 45.9242 292.152 45.8424H292.152Z" fill="#0079F7"/>
<path d="M289.969 53.3712L259.866 44.638C259.727 44.5975 259.597 44.5299 259.483 44.4391C259.37 44.3483 259.275 44.236 259.205 44.1086C259.135 43.9813 259.091 43.8414 259.075 43.6969C259.059 43.5524 259.071 43.4062 259.112 43.2665C259.152 43.1269 259.22 42.9967 259.311 42.8832C259.402 42.7697 259.514 42.6752 259.641 42.6051C259.768 42.535 259.908 42.4907 260.053 42.4746C260.197 42.4586 260.343 42.4712 260.483 42.5117L290.586 51.2449C290.867 51.3271 291.104 51.5176 291.245 51.7746C291.386 52.0316 291.42 52.3341 291.338 52.6157C291.256 52.8974 291.066 53.135 290.81 53.2767C290.553 53.4183 290.251 53.4523 289.969 53.3712Z" fill="#0079F7"/>
<path d="M287.787 60.8993L257.684 52.1661C257.403 52.0839 257.165 51.8934 257.024 51.6364C256.883 51.3793 256.85 51.0768 256.931 50.7952C257.013 50.5136 257.203 50.2759 257.46 50.1343C257.716 49.9927 258.019 49.9587 258.3 50.0398L288.403 58.773C288.685 58.8547 288.923 59.0452 289.064 59.3024C289.206 59.5596 289.239 59.8625 289.158 60.1444C289.076 60.4264 288.885 60.6643 288.628 60.8059C288.371 60.9475 288.068 60.9811 287.787 60.8993Z" fill="#0079F7"/>
<path d="M593.999 422.201H108.4V424.285H593.999V422.201Z" fill="#E6E6E6"/>
<path d="M390.348 418.943H311.382L314.059 384.132H387.671L390.348 418.943Z" fill="#E6E6E6"/>
<path d="M395.701 414.926H307.366V422.96H395.701V414.926Z" fill="#E6E6E6"/>
<path d="M502.104 159.862H200.295C198.165 159.862 196.122 160.708 194.616 162.215C193.11 163.722 192.264 165.765 192.264 167.896V351.997H510.134V167.896C510.134 166.841 509.927 165.796 509.523 164.821C509.12 163.847 508.528 162.961 507.782 162.215C507.037 161.469 506.151 160.877 505.177 160.474C504.203 160.07 503.159 159.862 502.104 159.862H502.104Z" fill="#3F3D56"/>
<path d="M192.264 351.997V382.123C192.264 383.178 192.472 384.223 192.876 385.197C193.279 386.172 193.871 387.058 194.616 387.804C195.362 388.55 196.247 389.141 197.222 389.545C198.196 389.949 199.24 390.157 200.295 390.157H502.104C504.234 390.157 506.276 389.31 507.782 387.804C509.288 386.297 510.134 384.254 510.134 382.123V351.997H192.264Z" fill="#E6E6E6"/>
<path d="M494.743 176.599H208.325V337.269H494.743V176.599Z" fill="#E6E6E6"/>
<path d="M351.534 378.776C355.969 378.776 359.564 375.179 359.564 370.742C359.564 366.305 355.969 362.709 351.534 362.709C347.099 362.709 343.503 366.305 343.503 370.742C343.503 375.179 347.099 378.776 351.534 378.776Z" fill="#3F3D56"/>
<path d="M217.256 183.385C218.097 183.385 218.78 182.702 218.78 181.86C218.78 181.018 218.097 180.336 217.256 180.336C216.414 180.336 215.732 181.018 215.732 181.86C215.732 182.702 216.414 183.385 217.256 183.385Z" fill="white"/>
<path d="M223.04 183.385C223.882 183.385 224.564 182.702 224.564 181.86C224.564 181.018 223.882 180.336 223.04 180.336C222.198 180.336 221.516 181.018 221.516 181.86C221.516 182.702 222.198 183.385 223.04 183.385Z" fill="white"/>
<path d="M228.825 183.385C229.666 183.385 230.349 182.702 230.349 181.86C230.349 181.018 229.666 180.336 228.825 180.336C227.983 180.336 227.301 181.018 227.301 181.86C227.301 182.702 227.983 183.385 228.825 183.385Z" fill="white"/>
<path d="M486.488 187.041H215.732V321.978H486.488V187.041Z" fill="white"/>
<path d="M233.73 207.566C233.476 207.566 233.233 207.667 233.053 207.846C232.874 208.026 232.773 208.269 232.772 208.523V256.925C232.773 257.178 232.874 257.422 233.053 257.601C233.233 257.781 233.476 257.882 233.73 257.882H289.604C289.858 257.882 290.101 257.781 290.28 257.601C290.46 257.422 290.561 257.178 290.561 256.925V208.523C290.561 208.269 290.46 208.026 290.28 207.846C290.101 207.667 289.858 207.566 289.604 207.566H233.73Z" fill="#E6E6E6"/>
<path d="M323.443 207.721C323.189 207.721 322.945 207.822 322.766 208.002C322.586 208.181 322.485 208.425 322.485 208.679V256.925C322.485 257.178 322.586 257.422 322.766 257.601C322.945 257.781 323.189 257.882 323.443 257.882H379.139C379.393 257.882 379.636 257.781 379.815 257.601C379.994 257.422 380.095 257.178 380.096 256.925V208.679C380.095 208.425 379.994 208.182 379.815 208.002C379.636 207.823 379.393 207.722 379.139 207.721H323.443Z" fill="#E6E6E6"/>
<path d="M412.215 207.215C411.961 207.216 411.718 207.317 411.539 207.496C411.359 207.676 411.258 207.919 411.258 208.173V256.924C411.258 257.178 411.359 257.422 411.539 257.601C411.718 257.781 411.961 257.882 412.215 257.882H468.49C468.744 257.882 468.987 257.781 469.166 257.601C469.346 257.422 469.447 257.178 469.447 256.924V208.173C469.447 207.919 469.346 207.676 469.166 207.496C468.987 207.317 468.744 207.216 468.49 207.215H412.215Z" fill="#E6E6E6"/>
<path d="M234.751 281.841C234.227 281.842 233.724 282.051 233.354 282.422C232.984 282.793 232.776 283.296 232.776 283.82C232.776 284.345 232.984 284.848 233.354 285.219C233.724 285.59 234.227 285.799 234.751 285.8H287.284C287.808 285.799 288.31 285.59 288.681 285.219C289.051 284.848 289.259 284.345 289.259 283.82C289.259 283.296 289.051 282.793 288.681 282.422C288.31 282.051 287.808 281.842 287.284 281.841H234.751Z" fill="#E6E6E6"/>
<path d="M234.751 291.257C234.227 291.258 233.725 291.467 233.354 291.838C232.984 292.209 232.776 292.712 232.776 293.237C232.776 293.761 232.984 294.264 233.354 294.636C233.725 295.007 234.227 295.216 234.751 295.217H258.404C258.928 295.216 259.43 295.007 259.801 294.636C260.171 294.264 260.379 293.761 260.379 293.237C260.379 292.712 260.171 292.209 259.801 291.838C259.43 291.467 258.928 291.258 258.404 291.257H234.751Z" fill="#0079F7"/>
<path d="M325.428 281.841C324.904 281.842 324.402 282.051 324.031 282.422C323.661 282.793 323.453 283.296 323.453 283.82C323.453 284.345 323.661 284.848 324.031 285.219C324.402 285.59 324.904 285.799 325.428 285.8H377.961C378.485 285.799 378.987 285.59 379.358 285.219C379.728 284.848 379.936 284.345 379.936 283.82C379.936 283.296 379.728 282.793 379.358 282.422C378.987 282.051 378.485 281.842 377.961 281.841H325.428Z" fill="#E6E6E6"/>
<path d="M325.428 291.257C324.904 291.258 324.401 291.467 324.031 291.838C323.661 292.209 323.453 292.712 323.453 293.237C323.453 293.761 323.661 294.264 324.031 294.636C324.401 295.007 324.904 295.216 325.428 295.217H349.081C349.605 295.216 350.108 295.007 350.478 294.636C350.848 294.264 351.056 293.761 351.056 293.237C351.056 292.712 350.848 292.209 350.478 291.838C350.108 291.467 349.605 291.258 349.081 291.257H325.428Z" fill="#0079F7"/>
<path d="M413.839 281.841C413.315 281.842 412.812 282.051 412.442 282.422C412.072 282.793 411.864 283.296 411.864 283.82C411.864 284.345 412.072 284.848 412.442 285.219C412.812 285.59 413.315 285.799 413.839 285.8H466.372C466.896 285.799 467.398 285.59 467.769 285.219C468.139 284.848 468.347 284.345 468.347 283.82C468.347 283.296 468.139 282.793 467.769 282.422C467.398 282.051 466.896 281.842 466.372 281.841H413.839Z" fill="#E6E6E6"/>
<path d="M234.751 272.115C234.227 272.116 233.724 272.325 233.354 272.696C232.984 273.067 232.776 273.57 232.776 274.095C232.776 274.619 232.984 275.122 233.354 275.493C233.724 275.865 234.227 276.074 234.751 276.075H287.284C287.808 276.074 288.31 275.865 288.681 275.493C289.051 275.122 289.259 274.619 289.259 274.095C289.259 273.57 289.051 273.067 288.681 272.696C288.31 272.325 287.808 272.116 287.284 272.115H234.751Z" fill="#E6E6E6"/>
<path d="M325.428 272.115C324.904 272.116 324.402 272.325 324.031 272.696C323.661 273.067 323.453 273.57 323.453 274.095C323.453 274.619 323.661 275.122 324.031 275.493C324.402 275.865 324.904 276.074 325.428 276.075H377.961C378.485 276.074 378.987 275.865 379.358 275.493C379.728 275.122 379.936 274.619 379.936 274.095C379.936 273.57 379.728 273.067 379.358 272.696C378.987 272.325 378.485 272.116 377.961 272.115H325.428Z" fill="#E6E6E6"/>
<path d="M413.839 272.115C413.315 272.116 412.812 272.325 412.442 272.696C412.072 273.067 411.864 273.57 411.864 274.095C411.864 274.619 412.072 275.122 412.442 275.493C412.812 275.865 413.315 276.074 413.839 276.075H466.372C466.896 276.074 467.398 275.865 467.769 275.493C468.139 275.122 468.347 274.619 468.347 274.095C468.347 273.57 468.139 273.067 467.769 272.696C467.398 272.325 466.896 272.116 466.372 272.115H413.839Z" fill="#E6E6E6"/>
<path d="M413.839 291.257C413.315 291.258 412.812 291.467 412.442 291.838C412.072 292.209 411.864 292.712 411.864 293.237C411.864 293.761 412.072 294.264 412.442 294.636C412.812 295.007 413.315 295.216 413.839 295.217H437.491C438.015 295.216 438.518 295.007 438.888 294.636C439.259 294.264 439.467 293.761 439.467 293.237C439.467 292.712 439.259 292.209 438.888 291.838C438.518 291.467 438.015 291.258 437.491 291.257H413.839Z" fill="#0079F7"/>
</svg>
