<svg width="508" height="455" viewBox="0 0 508 455" fill="none" xmlns="http://www.w3.org/2000/svg">
<path d="M260.163 0.991874L243.634 5.24581L39.9877 57.6553L23.4583 61.9092C15.4351 63.9836 8.56408 69.1494 4.35264 76.2733C0.141198 83.3971 -1.06672 91.8972 0.993889 99.9088L72.6691 377.284C74.7478 385.291 79.9241 392.148 87.0624 396.351C94.2008 400.554 102.718 401.759 110.746 399.703L110.789 399.692L347.408 338.797L347.451 338.786C355.474 336.711 362.345 331.545 366.556 324.422C370.768 317.298 371.976 308.798 369.915 300.786L298.24 23.4108C296.161 15.4039 290.985 8.54678 283.847 4.34387C276.708 0.140958 268.191 -1.06453 260.163 0.991874Z" fill="#F2F2F2"/>
<path d="M262.411 9.68848L242.833 14.727L45.2833 65.5675L25.7057 70.6059C19.9922 72.0831 15.0991 75.7618 12.1 80.8348C9.10095 85.9079 8.24075 91.961 9.70816 97.6662L81.3834 375.042C82.8636 380.743 86.5498 385.627 91.6332 388.62C96.7166 391.612 102.782 392.471 108.499 391.006L108.542 390.995L345.161 330.1L345.204 330.089C350.917 328.612 355.81 324.933 358.809 319.86C361.808 314.787 362.668 308.734 361.201 303.029L289.526 25.6535C288.046 19.9517 284.359 15.0686 279.276 12.0756C274.193 9.08263 268.127 8.22414 262.411 9.68848Z" fill="white"/>
<path d="M247.628 99.5099L127.928 130.315C126.591 130.659 125.172 130.459 123.982 129.759C122.793 129.059 121.932 127.916 121.587 126.582C121.242 125.248 121.442 123.832 122.144 122.645C122.846 121.458 123.991 120.598 125.328 120.254L245.028 89.4486C246.364 89.1059 247.782 89.3068 248.97 90.007C250.159 90.7073 251.019 91.8497 251.364 93.1831C251.709 94.5165 251.509 95.9319 250.808 97.1183C250.107 98.3046 248.963 99.1648 247.628 99.5099Z" fill="#F2F2F2"/>
<path d="M272.808 111.137L132.315 147.294C130.978 147.638 129.559 147.438 128.37 146.738C127.18 146.037 126.319 144.895 125.974 143.56C125.629 142.226 125.83 140.81 126.531 139.623C127.233 138.436 128.378 137.577 129.715 137.232L270.209 101.076C271.546 100.732 272.965 100.932 274.154 101.632C275.343 102.332 276.205 103.475 276.549 104.809C276.894 106.143 276.694 107.559 275.992 108.746C275.291 109.933 274.145 110.793 272.808 111.137Z" fill="#F2F2F2"/>
<path d="M267.289 175.598L147.589 206.404C146.927 206.574 146.238 206.613 145.561 206.517C144.884 206.422 144.233 206.194 143.644 205.848C143.055 205.501 142.541 205.042 142.13 204.497C141.719 203.952 141.419 203.331 141.248 202.67C141.078 202.01 141.039 201.322 141.135 200.647C141.23 199.971 141.458 199.321 141.806 198.733C142.153 198.146 142.613 197.632 143.159 197.222C143.706 196.812 144.327 196.513 144.989 196.342L264.689 165.537C265.351 165.367 266.04 165.328 266.717 165.423C267.394 165.519 268.046 165.746 268.635 166.093C269.223 166.44 269.738 166.899 270.149 167.444C270.56 167.989 270.859 168.61 271.03 169.27C271.201 169.931 271.24 170.619 271.144 171.294C271.048 171.97 270.82 172.62 270.473 173.208C270.126 173.795 269.666 174.309 269.119 174.719C268.573 175.129 267.951 175.428 267.289 175.598Z" fill="#F2F2F2"/>
<path d="M292.47 187.225L151.977 223.382C151.315 223.553 150.626 223.591 149.949 223.496C149.272 223.4 148.62 223.173 148.032 222.826C147.443 222.479 146.928 222.02 146.517 221.475C146.106 220.93 145.807 220.31 145.636 219.649C145.465 218.988 145.427 218.3 145.522 217.625C145.618 216.949 145.846 216.299 146.193 215.712C146.54 215.124 147 214.611 147.547 214.2C148.093 213.79 148.715 213.491 149.377 213.321L289.87 177.164C291.207 176.82 292.626 177.02 293.816 177.72C295.005 178.42 295.867 179.563 296.211 180.897C296.556 182.232 296.356 183.648 295.654 184.835C294.952 186.021 293.807 186.881 292.47 187.225Z" fill="#F2F2F2"/>
<path d="M286.951 251.687L167.251 282.492C165.914 282.835 164.496 282.635 163.308 281.934C162.119 281.234 161.258 280.092 160.914 278.758C160.569 277.424 160.769 276.009 161.47 274.822C162.171 273.636 163.315 272.776 164.651 272.431L284.351 241.626C285.688 241.281 287.107 241.482 288.296 242.182C289.485 242.882 290.347 244.025 290.692 245.359C291.037 246.693 290.836 248.109 290.135 249.296C289.433 250.483 288.288 251.343 286.951 251.687Z" fill="#F2F2F2"/>
<path d="M312.132 263.314L171.638 299.471C170.976 299.642 170.286 299.681 169.609 299.586C168.932 299.491 168.28 299.263 167.69 298.917C167.101 298.57 166.586 298.111 166.175 297.566C165.763 297.02 165.464 296.399 165.293 295.738C165.122 295.077 165.083 294.389 165.179 293.713C165.275 293.037 165.503 292.387 165.851 291.799C166.199 291.211 166.66 290.698 167.206 290.288C167.753 289.878 168.376 289.579 169.038 289.409L309.532 253.252C310.869 252.908 312.288 253.108 313.477 253.809C314.666 254.509 315.528 255.652 315.873 256.986C316.218 258.32 316.017 259.736 315.316 260.923C314.614 262.11 313.469 262.97 312.132 263.314Z" fill="#F2F2F2"/>
<path d="M107.493 161.902L65.1324 172.804C64.4914 172.968 63.8113 172.872 63.2413 172.536C62.6713 172.2 62.258 171.653 62.092 171.014L52.3682 133.383C52.2036 132.744 52.3 132.065 52.6363 131.496C52.9726 130.927 53.5213 130.515 54.1619 130.349L96.5226 119.447C97.1636 119.283 97.8437 119.379 98.4137 119.715C98.9837 120.05 99.3971 120.598 99.563 121.237L109.287 158.868C109.451 159.507 109.355 160.186 109.019 160.755C108.682 161.324 108.134 161.736 107.493 161.902Z" fill="#E6E6E6"/>
<path d="M127.155 237.99L84.7941 248.892C84.153 249.056 83.4729 248.96 82.9029 248.624C82.3329 248.289 81.9196 247.741 81.7536 247.102L72.0298 209.472C71.8652 208.832 71.9617 208.153 72.298 207.584C72.6342 207.015 73.1829 206.603 73.8236 206.437L116.184 195.536C116.825 195.371 117.505 195.468 118.075 195.803C118.645 196.139 119.059 196.686 119.225 197.326L128.948 234.956C129.113 235.596 129.017 236.274 128.68 236.843C128.344 237.412 127.795 237.825 127.155 237.99Z" fill="#E6E6E6"/>
<path d="M146.816 314.079L104.456 324.98C103.815 325.145 103.135 325.048 102.565 324.713C101.995 324.377 101.581 323.83 101.415 323.19L91.6914 285.56C91.5268 284.92 91.6233 284.242 91.9596 283.673C92.2959 283.104 92.8445 282.691 93.4852 282.526L135.846 271.624C136.487 271.46 137.167 271.556 137.737 271.892C138.307 272.227 138.72 272.775 138.886 273.414L148.61 311.044C148.775 311.684 148.678 312.363 148.342 312.932C148.006 313.501 147.457 313.913 146.816 314.079Z" fill="#E6E6E6"/>
<path d="M425.253 71.3031H180.804C172.516 71.3124 164.57 74.6023 158.71 80.4509C152.849 86.2996 149.553 94.2294 149.543 102.501V388.951C149.553 397.222 152.849 405.152 158.71 411C164.57 416.849 172.516 420.139 180.804 420.148H425.253C433.541 420.139 441.487 416.849 447.348 411C453.208 405.152 456.505 397.222 456.514 388.951V102.501C456.505 94.2294 453.208 86.2996 447.348 80.4509C441.487 74.6023 433.541 71.3124 425.253 71.3031Z" fill="#E6E6E6"/>
<path d="M425.253 80.2842H180.804C174.902 80.2908 169.244 82.6336 165.07 86.7985C160.897 90.9635 158.549 96.6105 158.542 102.501V388.951C158.549 394.841 160.897 400.488 165.07 404.653C169.244 408.818 174.902 411.16 180.804 411.167H425.253C431.155 411.16 436.814 408.818 440.987 404.653C445.161 400.488 447.508 394.841 447.515 388.951V102.501C447.508 96.6105 445.161 90.9636 440.987 86.7986C436.814 82.6337 431.155 80.2908 425.253 80.2842Z" fill="white"/>
<path d="M450.934 455C482.451 455 508 429.503 508 398.05C508 366.598 482.451 341.1 450.934 341.1C419.418 341.1 393.868 366.598 393.868 398.05C393.868 429.503 419.418 455 450.934 455Z" fill="#0079F7"/>
<path d="M478.227 390.622H458.378V370.813C458.378 368.843 457.593 366.954 456.197 365.561C454.802 364.168 452.908 363.385 450.934 363.385C448.96 363.385 447.067 364.168 445.671 365.561C444.275 366.954 443.491 368.843 443.491 370.813V390.622H423.642C421.668 390.622 419.775 391.404 418.379 392.798C416.983 394.191 416.198 396.08 416.198 398.05C416.198 400.02 416.983 401.91 418.379 403.303C419.775 404.696 421.668 405.478 423.642 405.478H443.491V425.287C443.491 427.257 444.275 429.146 445.671 430.54C447.067 431.933 448.96 432.715 450.934 432.715C452.908 432.715 454.802 431.933 456.197 430.54C457.593 429.146 458.378 427.257 458.378 425.287V405.478H478.227C480.201 405.478 482.094 404.696 483.49 403.303C484.886 401.91 485.67 400.02 485.67 398.05C485.67 396.08 484.886 394.191 483.49 392.798C482.094 391.404 480.201 390.622 478.227 390.622Z" fill="white"/>
<path d="M388.463 237.688H264.847C264.163 237.689 263.486 237.555 262.853 237.294C262.221 237.033 261.647 236.651 261.163 236.168C260.679 235.686 260.295 235.113 260.033 234.482C259.771 233.851 259.636 233.175 259.636 232.493C259.636 231.81 259.771 231.134 260.033 230.503C260.295 229.872 260.679 229.299 261.163 228.817C261.647 228.334 262.221 227.952 262.853 227.691C263.486 227.43 264.163 227.297 264.847 227.297H388.463C389.843 227.299 391.166 227.847 392.141 228.821C393.116 229.795 393.663 231.116 393.663 232.493C393.663 233.869 393.116 235.19 392.141 236.164C391.166 237.138 389.843 237.686 388.463 237.688Z" fill="#E6E6E6"/>
<path d="M409.937 255.221H264.847C264.163 255.222 263.486 255.088 262.853 254.828C262.221 254.567 261.647 254.184 261.163 253.702C260.679 253.219 260.295 252.646 260.033 252.016C259.771 251.385 259.636 250.709 259.636 250.026C259.636 249.344 259.771 248.667 260.033 248.037C260.295 247.406 260.679 246.833 261.163 246.351C261.647 245.868 262.221 245.486 262.853 245.225C263.486 244.964 264.163 244.83 264.847 244.831H409.937C411.318 244.831 412.642 245.378 413.618 246.353C414.595 247.327 415.143 248.648 415.143 250.026C415.143 251.404 414.595 252.726 413.618 253.7C412.642 254.674 411.318 255.221 409.937 255.221Z" fill="#E6E6E6"/>
<path d="M388.463 316.265H264.847C264.163 316.266 263.486 316.132 262.853 315.872C262.221 315.611 261.647 315.228 261.163 314.746C260.679 314.263 260.295 313.69 260.033 313.06C259.771 312.429 259.636 311.753 259.636 311.07C259.636 310.387 259.771 309.711 260.033 309.081C260.295 308.45 260.679 307.877 261.163 307.395C261.647 306.912 262.221 306.53 262.853 306.269C263.486 306.008 264.163 305.874 264.847 305.875H388.463C389.844 305.875 391.168 306.422 392.144 307.397C393.121 308.371 393.669 309.692 393.669 311.07C393.669 312.448 393.121 313.77 392.144 314.744C391.168 315.718 389.844 316.265 388.463 316.265Z" fill="#E6E6E6"/>
<path d="M409.937 333.799H264.847C264.163 333.8 263.486 333.666 262.853 333.406C262.221 333.145 261.647 332.762 261.163 332.28C260.679 331.797 260.295 331.224 260.033 330.594C259.771 329.963 259.636 329.287 259.636 328.604C259.636 327.921 259.771 327.245 260.033 326.615C260.295 325.984 260.679 325.411 261.163 324.929C261.647 324.446 262.221 324.063 262.853 323.803C263.486 323.542 264.163 323.408 264.847 323.409H409.937C410.621 323.408 411.299 323.542 411.931 323.803C412.564 324.063 413.138 324.446 413.622 324.929C414.106 325.411 414.49 325.984 414.752 326.615C415.014 327.245 415.149 327.921 415.149 328.604C415.149 329.287 415.014 329.963 414.752 330.594C414.49 331.224 414.106 331.797 413.622 332.28C413.138 332.762 412.564 333.145 411.931 333.406C411.299 333.666 410.621 333.8 409.937 333.799Z" fill="#E6E6E6"/>
<path d="M237.156 263.181H193.41C192.748 263.181 192.114 262.918 191.646 262.451C191.178 261.984 190.915 261.351 190.914 260.69V221.829C190.915 221.168 191.178 220.535 191.646 220.068C192.114 219.601 192.748 219.338 193.41 219.338H237.156C237.818 219.338 238.453 219.601 238.921 220.068C239.389 220.535 239.652 221.168 239.653 221.829V260.69C239.652 261.351 239.389 261.984 238.921 262.451C238.453 262.918 237.818 263.181 237.156 263.181Z" fill="#E6E6E6"/>
<path d="M237.156 341.759H193.41C192.748 341.758 192.114 341.495 191.646 341.028C191.178 340.561 190.915 339.928 190.914 339.268V300.406C190.915 299.746 191.178 299.113 191.646 298.646C192.114 298.179 192.748 297.916 193.41 297.915H237.156C237.818 297.916 238.453 298.179 238.921 298.646C239.389 299.113 239.652 299.746 239.653 300.406V339.268C239.652 339.928 239.389 340.561 238.921 341.028C238.453 341.495 237.818 341.758 237.156 341.759Z" fill="#E6E6E6"/>
<path d="M388.6 150.215H297.463C296.083 150.215 294.759 149.668 293.782 148.693C292.806 147.719 292.258 146.398 292.258 145.02C292.258 143.642 292.806 142.321 293.782 141.346C294.759 140.372 296.083 139.825 297.463 139.825H388.6C389.981 139.825 391.305 140.372 392.282 141.346C393.258 142.321 393.806 143.642 393.806 145.02C393.806 146.398 393.258 147.719 392.282 148.693C391.305 149.668 389.981 150.215 388.6 150.215Z" fill="#CCCCCC"/>
<path d="M410.074 167.749H297.463C296.78 167.749 296.103 167.615 295.471 167.354C294.84 167.093 294.266 166.71 293.782 166.227C293.299 165.745 292.915 165.172 292.654 164.542C292.392 163.912 292.258 163.236 292.258 162.554C292.258 161.872 292.392 161.196 292.654 160.566C292.915 159.935 293.299 159.363 293.782 158.88C294.266 158.398 294.84 158.015 295.471 157.754C296.103 157.493 296.78 157.359 297.463 157.359H410.074C411.455 157.359 412.779 157.906 413.755 158.88C414.732 159.855 415.28 161.176 415.28 162.554C415.28 163.932 414.732 165.253 413.755 166.227C412.779 167.202 411.455 167.749 410.074 167.749Z" fill="#CCCCCC"/>
<path d="M277.293 188.998H193.273C192.611 188.997 191.977 188.735 191.509 188.268C191.041 187.801 190.777 187.167 190.777 186.507V121.067C190.777 120.406 191.041 119.773 191.509 119.306C191.977 118.839 192.611 118.577 193.273 118.576H277.293C277.955 118.577 278.59 118.839 279.058 119.306C279.526 119.773 279.789 120.406 279.789 121.067V186.507C279.789 187.167 279.526 187.801 279.058 188.268C278.59 188.735 277.955 188.997 277.293 188.998Z" fill="#0079F7"/>
</svg>
