<svg width="202" height="44" viewBox="0 0 202 44" fill="none" xmlns="http://www.w3.org/2000/svg">
<path d="M200.609 36C200.609 39.866 197.475 43 193.609 43L41.1171 43C39.0464 43 37.082 42.0832 35.752 40.4961L12.2872 12.4961C8.46939 7.94043 11.7084 1 17.6523 1L193.609 1.00002C197.475 1.00002 200.609 4.13403 200.609 8.00002L200.609 36Z" fill="#0079f7" stroke="#0079F7" stroke-width="2" />
<path d="M44.7422 26.8994C44.7422 27.5342 44.5884 28.0859 44.2808 28.5547C43.9731 29.0234 43.5239 29.3848 42.9331 29.6387C42.3472 29.8926 41.6343 30.0195 40.7944 30.0195C40.4233 30.0195 40.0596 29.9951 39.7031 29.9463C39.3516 29.8975 39.0122 29.8267 38.6851 29.7339C38.3628 29.6362 38.0552 29.5166 37.7622 29.375V27.2656C38.27 27.4902 38.7974 27.6929 39.3442 27.8735C39.8911 28.0542 40.4331 28.1445 40.9702 28.1445C41.3413 28.1445 41.6392 28.0957 41.8638 27.998C42.0933 27.9004 42.2593 27.7661 42.3618 27.5952C42.4644 27.4243 42.5156 27.229 42.5156 27.0093C42.5156 26.7407 42.4253 26.5112 42.2446 26.3208C42.064 26.1304 41.8149 25.9521 41.4976 25.7861C41.1851 25.6201 40.8311 25.4419 40.4355 25.2515C40.1865 25.1343 39.9155 24.9927 39.6226 24.8267C39.3296 24.6558 39.0513 24.4482 38.7876 24.2041C38.5239 23.96 38.3066 23.6646 38.1357 23.3179C37.9697 22.9663 37.8867 22.5464 37.8867 22.0581C37.8867 21.4185 38.0332 20.8716 38.3262 20.4175C38.6191 19.9634 39.0366 19.6167 39.5786 19.3774C40.1255 19.1333 40.77 19.0112 41.5122 19.0112C42.0688 19.0112 42.5986 19.0771 43.1016 19.209C43.6094 19.3359 44.1392 19.5215 44.6909 19.7656L43.9585 21.5308C43.4653 21.3306 43.0234 21.1768 42.6328 21.0693C42.2422 20.957 41.8442 20.9009 41.439 20.9009C41.1558 20.9009 40.9141 20.9473 40.7139 21.04C40.5137 21.1279 40.3623 21.2549 40.2598 21.4209C40.1572 21.582 40.106 21.77 40.106 21.9849C40.106 22.2388 40.1792 22.4536 40.3257 22.6294C40.4771 22.8003 40.7017 22.9663 40.9995 23.1274C41.3022 23.2886 41.6782 23.4766 42.1274 23.6914C42.6743 23.9502 43.1406 24.2212 43.5264 24.5044C43.917 24.7827 44.2173 25.1123 44.4272 25.4932C44.6372 25.8691 44.7422 26.3379 44.7422 26.8994ZM55.3989 19.165V26.0938C55.3989 26.8311 55.2354 27.4976 54.9082 28.0933C54.5859 28.6841 54.0952 29.1528 53.436 29.4995C52.7817 29.8462 51.9565 30.0195 50.9604 30.0195C49.5444 30.0195 48.4653 29.6582 47.7231 28.9355C46.981 28.2129 46.6099 27.2559 46.6099 26.0645V19.165H48.873V25.7202C48.873 26.604 49.0537 27.2241 49.415 27.5806C49.7764 27.937 50.311 28.1152 51.019 28.1152C51.5171 28.1152 51.9199 28.0298 52.2275 27.8589C52.54 27.688 52.7695 27.4243 52.916 27.0679C53.0625 26.7114 53.1357 26.2573 53.1357 25.7056V19.165H55.3989ZM58.021 19.165H61.3535C62.7793 19.165 63.8584 19.3652 64.5908 19.7656C65.3232 20.166 65.6895 20.8691 65.6895 21.875C65.6895 22.2803 65.6235 22.6465 65.4917 22.9736C65.3647 23.3008 65.1792 23.5693 64.9351 23.7793C64.6909 23.9893 64.3931 24.126 64.0415 24.1895V24.2627C64.3979 24.3359 64.7202 24.4629 65.0083 24.6436C65.2964 24.8193 65.5259 25.0781 65.6968 25.4199C65.8726 25.7568 65.9604 26.2061 65.9604 26.7676C65.9604 27.417 65.8018 27.9736 65.4844 28.4375C65.167 28.9014 64.7129 29.2578 64.1221 29.5068C63.5361 29.751 62.8379 29.873 62.0273 29.873H58.021V19.165ZM60.2915 23.4058H61.6099C62.269 23.4058 62.7256 23.3032 62.9795 23.0981C63.2334 22.8882 63.3604 22.5806 63.3604 22.1753C63.3604 21.7651 63.209 21.4722 62.9062 21.2964C62.6084 21.1157 62.1348 21.0254 61.4854 21.0254H60.2915V23.4058ZM60.2915 25.2075V27.998H61.771C62.4546 27.998 62.9307 27.8662 63.1992 27.6025C63.4678 27.3389 63.6021 26.9849 63.6021 26.5405C63.6021 26.2769 63.5435 26.0449 63.4263 25.8447C63.3091 25.6445 63.1113 25.4883 62.833 25.376C62.5596 25.2637 62.1812 25.2075 61.6978 25.2075H60.2915ZM74.4199 26.8994C74.4199 27.5342 74.2661 28.0859 73.9585 28.5547C73.6509 29.0234 73.2017 29.3848 72.6108 29.6387C72.0249 29.8926 71.312 30.0195 70.4722 30.0195C70.1011 30.0195 69.7373 29.9951 69.3809 29.9463C69.0293 29.8975 68.6899 29.8267 68.3628 29.7339C68.0405 29.6362 67.7329 29.5166 67.4399 29.375V27.2656C67.9478 27.4902 68.4751 27.6929 69.022 27.8735C69.5688 28.0542 70.1108 28.1445 70.6479 28.1445C71.019 28.1445 71.3169 28.0957 71.5415 27.998C71.771 27.9004 71.937 27.7661 72.0396 27.5952C72.1421 27.4243 72.1934 27.229 72.1934 27.0093C72.1934 26.7407 72.103 26.5112 71.9224 26.3208C71.7417 26.1304 71.4927 25.9521 71.1753 25.7861C70.8628 25.6201 70.5088 25.4419 70.1133 25.2515C69.8643 25.1343 69.5933 24.9927 69.3003 24.8267C69.0073 24.6558 68.729 24.4482 68.4653 24.2041C68.2017 23.96 67.9844 23.6646 67.8135 23.3179C67.6475 22.9663 67.5645 22.5464 67.5645 22.0581C67.5645 21.4185 67.7109 20.8716 68.0039 20.4175C68.2969 19.9634 68.7144 19.6167 69.2563 19.3774C69.8032 19.1333 70.4478 19.0112 71.1899 19.0112C71.7466 19.0112 72.2764 19.0771 72.7793 19.209C73.2871 19.3359 73.8169 19.5215 74.3687 19.7656L73.6362 21.5308C73.1431 21.3306 72.7012 21.1768 72.3105 21.0693C71.9199 20.957 71.522 20.9009 71.1167 20.9009C70.8335 20.9009 70.5918 20.9473 70.3916 21.04C70.1914 21.1279 70.04 21.2549 69.9375 21.4209C69.835 21.582 69.7837 21.77 69.7837 21.9849C69.7837 22.2388 69.8569 22.4536 70.0034 22.6294C70.1548 22.8003 70.3794 22.9663 70.6772 23.1274C70.98 23.2886 71.356 23.4766 71.8052 23.6914C72.3521 23.9502 72.8184 24.2212 73.2041 24.5044C73.5947 24.7827 73.895 25.1123 74.105 25.4932C74.3149 25.8691 74.4199 26.3379 74.4199 26.8994ZM80.9092 20.9009C80.4746 20.9009 80.0889 20.9863 79.752 21.1572C79.4199 21.3232 79.1392 21.5649 78.9097 21.8823C78.6851 22.1997 78.5142 22.583 78.397 23.0322C78.2798 23.4814 78.2212 23.9868 78.2212 24.5483C78.2212 25.3052 78.314 25.9521 78.4995 26.4893C78.6899 27.0215 78.9829 27.4292 79.3784 27.7124C79.7739 27.9907 80.2842 28.1299 80.9092 28.1299C81.3438 28.1299 81.7783 28.0811 82.2129 27.9834C82.6523 27.8857 83.1284 27.7466 83.6411 27.5659V29.4702C83.1675 29.6655 82.7012 29.8047 82.2422 29.8877C81.7832 29.9756 81.2681 30.0195 80.6968 30.0195C79.5933 30.0195 78.6851 29.7925 77.9722 29.3384C77.2642 28.8794 76.7393 28.2397 76.3975 27.4194C76.0557 26.5942 75.8848 25.6323 75.8848 24.5337C75.8848 23.7231 75.9946 22.981 76.2144 22.3071C76.4341 21.6333 76.7563 21.0498 77.1812 20.5566C77.606 20.0635 78.1309 19.6826 78.7559 19.4141C79.3809 19.1455 80.0986 19.0112 80.9092 19.0112C81.4414 19.0112 81.9736 19.0796 82.5059 19.2163C83.043 19.3481 83.5557 19.5312 84.0439 19.7656L83.3115 21.6113C82.9111 21.4209 82.5083 21.2549 82.103 21.1133C81.6978 20.9717 81.2998 20.9009 80.9092 20.9009ZM89.0464 19.165C90.0181 19.165 90.8188 19.2822 91.4487 19.5166C92.0835 19.751 92.5547 20.105 92.8623 20.5786C93.1699 21.0522 93.3237 21.6504 93.3237 22.373C93.3237 22.8613 93.231 23.2886 93.0454 23.6548C92.8599 24.021 92.6157 24.3311 92.313 24.585C92.0103 24.8389 91.6831 25.0464 91.3315 25.2075L94.481 29.873H91.9614L89.4053 25.7642H88.1968V29.873H85.9263V19.165H89.0464ZM88.8853 21.0254H88.1968V23.9185H88.9292C89.6812 23.9185 90.2183 23.7939 90.5405 23.5449C90.8677 23.291 91.0312 22.9199 91.0312 22.4316C91.0312 21.9238 90.8555 21.5625 90.5039 21.3477C90.1572 21.1328 89.6177 21.0254 88.8853 21.0254ZM95.8286 29.873V19.165H98.0991V29.873H95.8286ZM100.794 19.165H104.127C105.553 19.165 106.632 19.3652 107.364 19.7656C108.097 20.166 108.463 20.8691 108.463 21.875C108.463 22.2803 108.397 22.6465 108.265 22.9736C108.138 23.3008 107.953 23.5693 107.708 23.7793C107.464 23.9893 107.167 24.126 106.815 24.1895V24.2627C107.171 24.3359 107.494 24.4629 107.782 24.6436C108.07 24.8193 108.299 25.0781 108.47 25.4199C108.646 25.7568 108.734 26.2061 108.734 26.7676C108.734 27.417 108.575 27.9736 108.258 28.4375C107.94 28.9014 107.486 29.2578 106.896 29.5068C106.31 29.751 105.611 29.873 104.801 29.873H100.794V19.165ZM103.065 23.4058H104.383C105.042 23.4058 105.499 23.3032 105.753 23.0981C106.007 22.8882 106.134 22.5806 106.134 22.1753C106.134 21.7651 105.982 21.4722 105.68 21.2964C105.382 21.1157 104.908 21.0254 104.259 21.0254H103.065V23.4058ZM103.065 25.2075V27.998H104.544C105.228 27.998 105.704 27.8662 105.973 27.6025C106.241 27.3389 106.375 26.9849 106.375 26.5405C106.375 26.2769 106.317 26.0449 106.2 25.8447C106.083 25.6445 105.885 25.4883 105.606 25.376C105.333 25.2637 104.955 25.2075 104.471 25.2075H103.065ZM117.04 29.873H110.873V19.165H117.04V21.0254H113.143V23.3765H116.769V25.2368H113.143V27.998H117.04V29.873ZM132.677 29.873H129.791L125.133 21.7725H125.067C125.086 22.1094 125.104 22.4487 125.118 22.7905C125.133 23.1323 125.147 23.4741 125.162 23.8159C125.177 24.1528 125.191 24.4922 125.206 24.834V29.873H123.177V19.165H126.041L130.692 27.1851H130.743C130.733 26.853 130.721 26.5234 130.707 26.1963C130.692 25.8691 130.677 25.542 130.663 25.2148C130.653 24.8877 130.643 24.5605 130.633 24.2334V19.165H132.677V29.873ZM145.099 24.5044C145.099 25.3296 144.996 26.0815 144.791 26.7603C144.586 27.4341 144.273 28.0151 143.854 28.5034C143.438 28.9917 142.911 29.3677 142.271 29.6313C141.632 29.8901 140.875 30.0195 140.001 30.0195C139.127 30.0195 138.37 29.8901 137.73 29.6313C137.091 29.3677 136.561 28.9917 136.141 28.5034C135.726 28.0151 135.416 27.4316 135.211 26.7529C135.006 26.0742 134.903 25.3198 134.903 24.4897C134.903 23.3813 135.084 22.417 135.445 21.5967C135.812 20.7715 136.373 20.1318 137.13 19.6777C137.887 19.2236 138.849 18.9966 140.016 18.9966C141.178 18.9966 142.132 19.2236 142.879 19.6777C143.631 20.1318 144.188 20.7715 144.549 21.5967C144.916 22.4219 145.099 23.3911 145.099 24.5044ZM137.284 24.5044C137.284 25.2515 137.376 25.896 137.562 26.438C137.752 26.9751 138.048 27.3901 138.448 27.6831C138.849 27.9712 139.366 28.1152 140.001 28.1152C140.646 28.1152 141.168 27.9712 141.568 27.6831C141.969 27.3901 142.259 26.9751 142.44 26.438C142.625 25.896 142.718 25.2515 142.718 24.5044C142.718 23.3813 142.508 22.4976 142.088 21.853C141.668 21.2085 140.978 20.8862 140.016 20.8862C139.376 20.8862 138.854 21.0327 138.448 21.3257C138.048 21.6138 137.752 22.0288 137.562 22.5708C137.376 23.1079 137.284 23.7524 137.284 24.5044ZM160.472 19.165L157.748 29.873H155.162L153.712 24.248C153.683 24.1406 153.644 23.9771 153.595 23.7573C153.546 23.5376 153.495 23.2983 153.441 23.0396C153.387 22.7759 153.338 22.5293 153.294 22.2998C153.255 22.0654 153.229 21.8799 153.214 21.7432C153.199 21.8799 153.17 22.063 153.126 22.2925C153.087 22.522 153.041 22.7661 152.987 23.0249C152.938 23.2837 152.889 23.5254 152.84 23.75C152.792 23.9746 152.752 24.1455 152.723 24.2627L151.28 29.873H148.702L145.97 19.165H148.204L149.574 25.0098C149.613 25.1855 149.657 25.3955 149.706 25.6396C149.759 25.8838 149.811 26.1401 149.859 26.4087C149.913 26.6724 149.959 26.9287 149.999 27.1777C150.042 27.4219 150.074 27.6343 150.094 27.8149C150.118 27.6294 150.15 27.4146 150.189 27.1704C150.228 26.9214 150.27 26.6699 150.313 26.416C150.362 26.1572 150.411 25.918 150.46 25.6982C150.509 25.4785 150.553 25.3003 150.592 25.1636L152.152 19.165H154.298L155.858 25.1636C155.892 25.2954 155.931 25.4736 155.975 25.6982C156.024 25.918 156.073 26.1572 156.122 26.416C156.17 26.6748 156.214 26.9287 156.253 27.1777C156.297 27.4219 156.329 27.6343 156.349 27.8149C156.383 27.5708 156.429 27.2754 156.488 26.9287C156.551 26.5771 156.617 26.228 156.686 25.8813C156.759 25.5347 156.822 25.2441 156.876 25.0098L158.238 19.165H160.472Z" fill="white"/>
<path d="M186.795 9.20338C186.892 9.30051 186.959 9.424 186.986 9.5585C187.013 9.69299 187.001 9.83257 186.949 9.9599L178.798 30.3397C178.726 30.5192 178.606 30.6754 178.451 30.7911C178.297 30.9068 178.113 30.9775 177.92 30.9955C177.728 31.0134 177.534 30.9779 177.361 30.8929C177.187 30.8078 177.04 30.6766 176.936 30.5135L172.485 23.5156L165.488 19.0634C165.324 18.9597 165.193 18.8128 165.107 18.6391C165.022 18.4653 164.987 18.2713 165.005 18.0786C165.023 17.8858 165.093 17.7018 165.209 17.5468C165.325 17.3918 165.482 17.2718 165.662 17.2001L186.039 9.05068C186.166 8.99942 186.306 8.9867 186.44 9.0141C186.575 9.04149 186.698 9.1078 186.795 9.20478V9.20338ZM173.883 23.1066L177.75 29.1839L184.38 12.6077L173.883 23.1066ZM183.39 11.6172L166.816 18.248L172.894 22.1147L183.391 11.6172H183.39Z" fill="white" />
</svg>
