<?xml version="1.0" encoding="utf-8"?>
<!-- Generator: Adobe Illustrator 23.0.2, SVG Export Plug-In . SVG Version: 6.00 Build 0)  -->
<svg version="1.1" id="Layer_1" xmlns="http://www.w3.org/2000/svg" xmlns:xlink="http://www.w3.org/1999/xlink" x="0px" y="0px"
	 viewBox="0 0 2000 2000" style="enable-background:new 0 0 2000 2000;" xml:space="preserve">
<style type="text/css">
	.st0{display:none;}
	.st1{display:inline;fill:url(#SVGID_1_);}
	.st2{display:inline;}
	.st3{fill:#005A8C;}
	.st4{fill:#409EFF;}
	.st5{display:inline;fill:#409EFF;}
	.st6{display:inline;fill:#0B7ED3;}
	.st7{fill:url(#SVGID_2_);}
	.st8{fill:#0B7ED3;}
</style>
<g class="st0">
	<linearGradient id="SVGID_1_" gradientUnits="userSpaceOnUse" x1="168.901" y1="1074.1149" x2="586.2729" y2="1074.1149">
		<stop  offset="0" style="stop-color:#00AEEF"/>
		<stop  offset="1" style="stop-color:#0B7ED3"/>
	</linearGradient>
	<path class="st1" d="M524.46,1211.15c38.18-37.8,61.81-90.26,61.81-148.23c0-115.26-93.42-208.68-208.68-208.68
		S168.9,947.66,168.9,1062.91s93.44,208.68,208.69,208.68c34.3,0,66.66-8.27,95.2-22.93c-0.08,1.1-0.13,2.21-0.13,3.34
		c0,23.2,18.8,42,42,42c23.2,0,42-18.8,42-42C556.65,1232.17,542.92,1215.56,524.46,1211.15z M377.58,1192.01
		c-71.18,0-129.1-57.92-129.1-129.1s57.92-129.1,129.1-129.1c71.19,0,129.11,57.92,129.11,129.1S448.77,1192.01,377.58,1192.01z"/>
	<g class="st2">
		<g id="Layer_5_1_">
			<g>
				<path class="st3" d="M464.43,789.9c0,9.57,0,38.32,0,38.32v2.73c0,8.6-6.56,17.48-17.59,24.88
					c-21.55-7.29-44.64-11.24-68.63-11.24c-22.49,0-44.16,3.47-64.54,9.91c-9.85-7.13-15.67-15.46-15.67-23.55v-2.73
					c0,0,0-27.1,0-36.13c0-7.95,5.73-4.44,5.73-4.44l63.47,38.91c3.88,2.39,8.86,3.7,14.02,3.7c5.15,0,10.13-1.31,14.01-3.7
					l65.12-39.93C460.35,786.63,464.43,783.52,464.43,789.9z"/>
				<path class="st3" d="M486.76,756.68c4.88-2.99,4.88-7.88,0-10.88l-96.68-48.35c-4.88-2.99-12.86-2.99-17.73,0l-96.68,48.35
					c-4.88,2.99-4.88,7.88,0,10.88l96.68,59.3c4.88,2.99,12.86,2.99,17.73,0L486.76,756.68z"/>
				<path class="st3" d="M482.77,844.58c0-16.37,0-65.49,0-65.49s0.05-3.1-1.8-2.08c-1.48,0.82-5.1,2.84-6.37,3.95
					c-1.47,1.28-1.14,4.15-1.14,4.15s0,44.6,0,59.47c0,0.84-0.73,1.25-1.07,1.45c-3.34,1.96-5.59,5.59-5.59,9.75
					c0,6.25,5.07,11.31,11.31,11.31c6.25,0,11.31-5.07,11.31-11.31c0-4.17-2.26-7.81-5.63-9.77
					C483.46,845.81,482.77,845.42,482.77,844.58z"/>
			</g>
		</g>
	</g>
	<g class="st2">
		<path class="st4" d="M659.49,1057.79c5.56-7.58,12.39-13.75,20.48-18.49c8.09-4.74,16.87-7.11,26.35-7.11
			c11.25,0,21.33,2.75,30.24,8.25c8.91,5.5,15.96,12.67,21.14,21.52c3.03-4.42,6.57-8.47,10.62-12.14c4.04-3.66,8.5-6.79,13.37-9.38
			c4.86-2.59,9.95-4.61,15.26-6.07c5.31-1.45,10.74-2.18,16.31-2.18c8.21,0,15.89,1.52,23.04,4.55c7.14,3.03,13.33,7.2,18.58,12.51
			c5.24,5.31,9.45,11.54,12.61,18.68c3.16,7.14,4.86,14.76,5.12,22.85c0.12,0.38,0.19,0.89,0.19,1.52v109.59
			c0,2.53-0.85,4.68-2.56,6.45c-1.71,1.77-3.82,2.65-6.35,2.65c-2.4,0-4.52-0.88-6.35-2.65c-1.83-1.77-2.75-3.92-2.75-6.45V1092.1
			c0-5.94-1.2-11.44-3.6-16.49c-2.4-5.05-5.59-9.45-9.57-13.18c-3.98-3.73-8.56-6.64-13.75-8.72c-5.18-2.09-10.62-3.13-16.31-3.13
			c-5.94,0-11.66,1.17-17.16,3.51c-5.5,2.34-10.33,5.47-14.5,9.38c-4.17,3.92-7.52,8.47-10.05,13.65
			c-2.53,5.18-3.79,10.62-3.79,16.3v108.45c0,2.53-0.85,4.68-2.56,6.45c-1.71,1.77-3.83,2.65-6.35,2.65c-2.53,0-4.68-0.88-6.45-2.65
			c-1.77-1.77-2.65-3.92-2.65-6.45v-109.4c0-5.94-1.17-11.47-3.51-16.59c-2.34-5.12-5.47-9.54-9.39-13.27
			c-3.92-3.73-8.47-6.67-13.65-8.82c-5.18-2.15-10.62-3.22-16.31-3.22c-6.07,0-11.85,1.14-17.35,3.41
			c-5.5,2.28-10.33,5.37-14.5,9.29c-4.17,3.92-7.52,8.47-10.05,13.65c-2.53,5.18-3.79,10.62-3.79,16.31v108.45
			c0,2.53-0.85,4.71-2.56,6.54c-1.71,1.83-3.83,2.75-6.35,2.75c-2.53,0-4.68-0.92-6.45-2.75c-1.77-1.83-2.65-4.01-2.65-6.54v-160.21
			c0-2.53,0.88-4.68,2.65-6.45c1.77-1.77,3.92-2.66,6.45-2.66c2.53,0,4.65,0.89,6.35,2.66c1.71,1.77,2.56,3.92,2.56,6.45V1057.79z"
			/>
		<path class="st4" d="M926.25,1057.79c5.56-7.58,12.39-13.75,20.48-18.49c8.09-4.74,16.87-7.11,26.35-7.11
			c11.25,0,21.33,2.75,30.24,8.25c8.91,5.5,15.96,12.67,21.14,21.52c3.03-4.42,6.57-8.47,10.62-12.14c4.04-3.66,8.5-6.79,13.37-9.38
			c4.86-2.59,9.95-4.61,15.26-6.07c5.31-1.45,10.74-2.18,16.31-2.18c8.21,0,15.89,1.52,23.04,4.55c7.14,3.03,13.33,7.2,18.58,12.51
			c5.24,5.31,9.45,11.54,12.61,18.68c3.16,7.14,4.86,14.76,5.12,22.85c0.12,0.38,0.19,0.89,0.19,1.52v109.59
			c0,2.53-0.85,4.68-2.56,6.45c-1.71,1.77-3.82,2.65-6.35,2.65c-2.4,0-4.52-0.88-6.35-2.65c-1.83-1.77-2.75-3.92-2.75-6.45V1092.1
			c0-5.94-1.2-11.44-3.6-16.49c-2.4-5.05-5.59-9.45-9.57-13.18c-3.98-3.73-8.57-6.64-13.75-8.72c-5.18-2.09-10.62-3.13-16.31-3.13
			c-5.94,0-11.66,1.17-17.16,3.51c-5.5,2.34-10.33,5.47-14.5,9.38c-4.17,3.92-7.52,8.47-10.05,13.65
			c-2.53,5.18-3.79,10.62-3.79,16.3v108.45c0,2.53-0.85,4.68-2.56,6.45c-1.71,1.77-3.83,2.65-6.35,2.65c-2.53,0-4.68-0.88-6.45-2.65
			c-1.77-1.77-2.65-3.92-2.65-6.45v-109.4c0-5.94-1.17-11.47-3.51-16.59c-2.34-5.12-5.47-9.54-9.39-13.27
			c-3.92-3.73-8.47-6.67-13.65-8.82c-5.18-2.15-10.62-3.22-16.31-3.22c-6.07,0-11.85,1.14-17.35,3.41
			c-5.5,2.28-10.33,5.37-14.5,9.29c-4.17,3.92-7.52,8.47-10.05,13.65c-2.53,5.18-3.79,10.62-3.79,16.31v108.45
			c0,2.53-0.85,4.71-2.56,6.54c-1.71,1.83-3.83,2.75-6.35,2.75c-2.53,0-4.68-0.92-6.45-2.75c-1.77-1.83-2.65-4.01-2.65-6.54v-160.21
			c0-2.53,0.88-4.68,2.65-6.45c1.77-1.77,3.92-2.66,6.45-2.66c2.53,0,4.65,0.89,6.35,2.66c1.71,1.77,2.56,3.92,2.56,6.45V1057.79z"
			/>
	</g>
	<path class="st5" d="M1338.7,1094.09c-7.01-5.24-15.04-9.76-24.08-13.56c-9.04-3.79-18.36-7.27-27.97-10.43
		c-3.67-1.01-7.62-2.15-11.85-3.41c-4.24-1.26-8.5-2.72-12.8-4.36c-4.3-1.64-8.44-3.6-12.42-5.88c-3.98-2.27-7.52-4.9-10.62-7.87
		c-3.1-2.97-5.56-6.38-7.39-10.24c-1.83-3.85-2.75-8.25-2.75-13.18c0.12-7.33,1.9-13.68,5.31-19.05c3.41-5.37,7.74-9.86,12.99-13.46
		c5.24-3.6,11.03-6.29,17.35-8.06c6.32-1.77,12.45-2.66,18.39-2.66c10.87,0,20.89,1.93,30.05,5.78
		c9.16,3.86,17.47,10.78,24.93,20.76c2.15,1.77,4.27,2.56,6.35,2.37c2.08-0.19,3.82-0.91,5.21-2.18c1.14-1.01,1.99-2.43,2.56-4.27
		c0.57-1.83,0.35-3.63-0.66-5.4c-6.7-11.5-16.12-20.22-28.25-26.16c-12.13-5.94-25.6-8.91-40.38-8.91c-8.47,0-16.97,1.39-25.5,4.17
		c-8.53,2.78-16.24,6.76-23.13,11.94c-6.89,5.19-12.48,11.6-16.78,19.24c-4.3,7.65-6.45,16.28-6.45,25.88
		c0,9.61,2.18,17.85,6.54,24.74c4.36,6.89,9.95,12.77,16.78,17.63c6.82,4.87,14.41,8.91,22.75,12.14
		c8.34,3.22,16.56,5.85,24.65,7.87c7.71,2.66,15.29,5.4,22.75,8.25c7.46,2.84,14.12,6.19,20,10.05c5.88,3.86,10.62,8.47,14.22,13.84
		c3.6,5.37,5.4,11.92,5.4,19.62c0,8.85-1.77,16.62-5.31,23.32c-3.54,6.7-8.18,12.29-13.94,16.78c-5.75,4.49-12.2,7.87-19.34,10.14
		c-7.14,2.27-14.31,3.41-21.52,3.41c-6.83,0-13.49-0.85-20-2.56c-6.51-1.71-12.55-4.11-18.11-7.2c-5.56-3.1-10.52-6.86-14.88-11.28
		c-4.36-4.42-7.74-9.29-10.14-14.6c-3.92-5.18-7.96-6.7-12.13-4.55c-2.02,1.01-3.54,2.56-4.55,4.64c-1.01,2.09-0.82,4.65,0.57,7.68
		c2.78,6.45,6.76,12.48,11.95,18.11c5.18,5.63,11.25,10.49,18.2,14.6c6.95,4.11,14.53,7.33,22.75,9.67
		c8.22,2.34,16.68,3.51,25.41,3.51c10.24,0,20.13-1.68,29.67-5.02c9.54-3.35,17.98-8.15,25.31-14.41
		c7.33-6.26,13.18-13.84,17.54-22.75c4.36-8.91,6.54-18.86,6.54-29.86c0-10.11-2.12-18.8-6.35-26.07
		C1351.34,1105.6,1345.72,1099.34,1338.7,1094.09z"/>
	<path class="st5" d="M1538.16,1056.36c-8.15-8.15-17.7-14.6-28.63-19.34c-10.93-4.74-22.66-7.11-35.17-7.11
		c-12.39,0-24.08,2.37-35.08,7.11c-11,4.74-20.6,11.19-28.82,19.34c-8.22,8.15-14.69,17.76-19.43,28.82
		c-4.74,11.06-7.11,22.85-7.11,35.36c0,12.39,2.37,24.08,7.11,35.08c4.74,11,11.22,20.57,19.43,28.72
		c8.22,8.15,17.82,14.6,28.82,19.34c11,4.74,22.69,7.11,35.08,7.11c12.51,0,24.24-2.37,35.17-7.11
		c10.93-4.74,20.48-11.19,28.63-19.34c8.15-8.15,14.6-17.73,19.34-28.72c4.74-11,7.11-22.69,7.11-35.08
		c0-12.51-2.37-24.3-7.11-35.36C1552.76,1074.12,1546.31,1064.52,1538.16,1056.36z M1541.01,1148.41
		c-3.73,8.72-8.82,16.37-15.26,22.94c-6.45,6.57-14.06,11.79-22.85,15.64c-8.79,3.86-18.3,5.78-28.53,5.78
		c-10.11,0-19.56-1.93-28.35-5.78c-8.79-3.85-16.43-9.07-22.94-15.64c-6.51-6.57-11.63-14.22-15.36-22.94
		c-3.73-8.72-5.59-18.01-5.59-27.87c0-9.98,1.86-19.4,5.59-28.25c3.73-8.85,8.85-16.52,15.36-23.04
		c6.51-6.51,14.16-11.66,22.94-15.45c8.78-3.79,18.23-5.69,28.35-5.69c10.11,0,19.56,1.9,28.34,5.69
		c8.78,3.79,16.43,8.94,22.94,15.45c6.51,6.51,11.63,14.19,15.36,23.04c3.73,8.85,5.59,18.27,5.59,28.25
		C1546.6,1130.4,1544.73,1139.69,1541.01,1148.41z"/>
	<path class="st5" d="M1630.78,1005.83c1.9-4.29,4.42-8.06,7.58-11.28c3.16-3.22,6.85-5.81,11.09-7.77c4.23-1.96,8.88-3,13.94-3.13
		h0.76c2.66,0,4.87-0.85,6.64-2.56c1.77-1.71,2.66-3.82,2.66-6.35c0-2.65-0.89-4.74-2.66-6.26c-1.77-1.52-3.98-2.27-6.64-2.27
		c-7.58,0-14.63,1.33-21.14,3.98c-6.51,2.65-12.2,6.32-17.06,11c-4.87,4.68-8.75,10.3-11.66,16.88c-2.91,6.57-4.43,13.72-4.55,21.42
		v13.65h-24.08c-2.53,0-4.68,0.85-6.45,2.56c-1.77,1.71-2.66,3.82-2.66,6.35c0,2.53,0.88,4.68,2.66,6.45
		c1.77,1.77,3.92,2.66,6.45,2.66h24.08v150.35c0,2.66,0.88,4.87,2.65,6.64c1.77,1.77,3.92,2.66,6.45,2.66
		c2.53,0,4.65-0.88,6.35-2.66c1.71-1.77,2.56-3.98,2.56-6.64v-150.35h28.44c2.53,0,4.68-0.85,6.45-2.56
		c1.77-1.71,2.66-3.89,2.66-6.54c0-2.53-0.89-4.65-2.66-6.35c-1.77-1.71-3.92-2.56-6.45-2.56h-28.44v-13.65
		C1627.87,1014.68,1628.88,1010.13,1630.78,1005.83z"/>
	<path class="st5" d="M1831.1,1187.92c0,12.51-10.36,22.87-22.87,22.87h-11.44c-37.91,0-68.65-30.74-68.65-68.64v-68.64h-17.15
		c-12.51,0-22.88-10.36-22.88-22.88c0-12.51,10.37-22.87,22.88-22.87h17.15v-20.77h-0.04v-21.17c0-0.41,0.02-0.81,0.07-1.2
		c0.27-2.61,1.45-4.94,3.2-6.71c2.02-2.02,4.82-3.28,7.91-3.28h23.42c5.77,0,10.52,4.38,11.11,9.99h0.08v19.69
		c0.01,0.19,0.01,0.36,0.01,0.56v22.88h34.32c12.51,0,22.87,10.36,22.87,22.87c0,12.52-10.36,22.88-22.87,22.88h-34.32v68.64
		c0,12.51,10.36,22.88,22.88,22.88h11.44C1820.74,1165.03,1831.1,1175.41,1831.1,1187.92z"/>
	<path class="st6" d="M1728.17,1209.59c-0.05,0.39-0.07,0.79-0.07,1.2v-1.2H1728.17z"/>
	<g class="st2">
		<path class="st3" d="M1764.39,967.28c0.81,0,1.51-0.56,1.7-1.34c1.4-5.82,4.41-14.1,10.84-20.54c0.55-0.55,0.67-1.4,0.29-2.08
			l-21.95-39.51c-0.39-0.7-1.21-1.05-1.99-0.84c-0.77,0.21-1.31,0.93-1.28,1.73l0.86,30.25c0.03,1.02,0.53,1.99,1.38,2.66
			c1.66,1.32,2.34,3.36,1.81,5.46c-0.47,1.84-2.03,3.34-3.9,3.74c-1.62,0.34-3.21-0.03-4.46-1.04c-1.23-1-1.94-2.49-1.94-4.07
			c0-1.59,0.72-3.07,1.99-4.08c0.87-0.69,1.35-1.63,1.38-2.66l0.86-30.25c0.02-0.8-0.51-1.52-1.28-1.73
			c-0.62-0.17-1.26,0.01-1.7,0.45c-0.11,0.11-0.21,0.24-0.29,0.39l-21.95,39.51c-0.38,0.68-0.26,1.53,0.29,2.08
			c6.44,6.44,9.45,14.72,10.84,20.54c0.19,0.78,0.89,1.34,1.7,1.34L1764.39,967.28z"/>
		<circle class="st3" cx="1750.99" cy="896.2" r="5.17"/>
	</g>
	<g class="st2">
		<path class="st3" d="M660.15,1251.5l-17.59,42.49h1.24c0.36,0,0.59-0.17,0.7-0.51l5.53-13.45h21.82l5.53,13.45
			c0.14,0.34,0.36,0.51,0.66,0.51h1.3l-17.59-42.49H660.15z M650.57,1278.76l9.73-23.66c0.24-0.54,0.45-1.15,0.63-1.81
			c0.2,0.66,0.41,1.27,0.63,1.81l9.73,23.66H650.57z"/>
		<path class="st3" d="M760.46,1289.7c-0.16,0-0.42,0.18-0.79,0.53c-0.36,0.35-0.89,0.74-1.57,1.18c-0.68,0.43-1.55,0.83-2.58,1.18
			c-1.04,0.35-2.32,0.53-3.85,0.53c-1.69,0-3.23-0.31-4.61-0.94c-1.38-0.62-2.56-1.53-3.54-2.72c-0.98-1.19-1.73-2.65-2.27-4.4
			c-0.53-1.74-0.8-3.73-0.8-5.97c0-2.18,0.26-4.13,0.79-5.86c0.52-1.73,1.28-3.21,2.28-4.44c1-1.23,2.22-2.17,3.66-2.83
			c1.44-0.65,3.09-0.98,4.94-0.98c1.31,0,2.43,0.14,3.35,0.42c0.93,0.28,1.69,0.59,2.3,0.94c0.6,0.34,1.08,0.66,1.42,0.94
			c0.34,0.28,0.59,0.42,0.76,0.42c0.1,0,0.18-0.02,0.24-0.08c0.06-0.05,0.12-0.11,0.18-0.17l0.39-0.51
			c-1.05-0.97-2.3-1.75-3.75-2.34c-1.45-0.59-3.1-0.89-4.96-0.89c-2.1,0-3.96,0.37-5.59,1.12c-1.63,0.75-3.01,1.79-4.14,3.13
			c-1.13,1.34-1.99,2.96-2.58,4.85c-0.59,1.89-0.89,3.99-0.89,6.29c0,2.4,0.3,4.54,0.91,6.44c0.6,1.89,1.46,3.5,2.55,4.8
			c1.1,1.31,2.42,2.31,3.97,2.99c1.55,0.68,3.28,1.03,5.2,1.03c1.15,0,2.23-0.12,3.25-0.35c1.02-0.23,1.94-0.53,2.78-0.91
			c0.84-0.37,1.57-0.8,2.21-1.28c0.63-0.48,1.13-0.98,1.5-1.48l-0.36-0.45C760.75,1289.76,760.62,1289.7,760.46,1289.7z"/>
		<path class="st3" d="M809.63,1267.93c-1.13-1.34-2.51-2.38-4.16-3.11s-3.52-1.1-5.64-1.1c-2.12,0-4,0.37-5.64,1.1
			c-1.64,0.74-3.03,1.77-4.16,3.11c-1.13,1.34-1.99,2.96-2.57,4.85c-0.58,1.89-0.88,4-0.88,6.32c0,2.32,0.29,4.42,0.88,6.3
			c0.58,1.88,1.44,3.49,2.57,4.82c1.13,1.33,2.51,2.35,4.16,3.07c1.64,0.72,3.52,1.07,5.64,1.07c2.12,0,3.99-0.36,5.64-1.07
			c1.64-0.71,3.03-1.74,4.16-3.07c1.13-1.33,1.98-2.94,2.57-4.82c0.58-1.88,0.88-3.98,0.88-6.3c0-2.32-0.29-4.42-0.88-6.32
			C811.62,1270.89,810.76,1269.27,809.63,1267.93z M810.75,1284.84c-0.48,1.71-1.21,3.18-2.19,4.41c-0.98,1.23-2.19,2.18-3.64,2.84
			c-1.45,0.66-3.14,1-5.08,1c-1.93,0-3.63-0.33-5.08-1s-2.66-1.61-3.64-2.84c-0.98-1.23-1.71-2.7-2.19-4.41
			c-0.48-1.71-0.72-3.63-0.72-5.74c0-2.12,0.24-4.04,0.72-5.77c0.48-1.73,1.21-3.22,2.19-4.46c0.98-1.24,2.19-2.2,3.64-2.87
			s3.14-1.01,5.08-1.01c1.93,0,3.63,0.34,5.08,1.01c1.45,0.68,2.66,1.63,3.64,2.87c0.98,1.24,1.71,2.72,2.19,4.46
			s0.73,3.66,0.73,5.77C811.48,1281.21,811.24,1283.13,810.75,1284.84z"/>
		<path class="st3" d="M877.18,1266.61c-0.81-0.95-1.79-1.67-2.95-2.16c-1.16-0.49-2.45-0.74-3.88-0.74c-1.07,0-2.11,0.16-3.11,0.47
			c-1.01,0.31-1.93,0.8-2.78,1.45c-0.85,0.66-1.59,1.47-2.22,2.45c-0.63,0.98-1.1,2.13-1.41,3.46c-0.4-2.48-1.27-4.4-2.6-5.77
			c-1.33-1.37-3.13-2.06-5.41-2.06c-1.91,0-3.66,0.55-5.24,1.66c-1.58,1.11-2.96,2.59-4.13,4.44l-0.18-5.02
			c-0.02-0.4-0.22-0.6-0.6-0.6h-0.76v29.8h1.6v-22.67c1.15-1.97,2.48-3.53,3.99-4.65c1.51-1.13,3.17-1.69,4.99-1.69
			c2.42,0,4.25,0.87,5.5,2.6c1.25,1.73,1.87,4.18,1.87,7.34v19.07h1.6v-19.07c0-1.65,0.24-3.1,0.72-4.34
			c0.48-1.24,1.12-2.28,1.92-3.11c0.8-0.84,1.71-1.46,2.75-1.87c1.04-0.41,2.12-0.62,3.25-0.62c2.56,0,4.53,0.85,5.91,2.55
			c1.38,1.7,2.07,4.17,2.07,7.39v19.07h1.6v-19.07c0-1.81-0.22-3.41-0.65-4.8C878.61,1268.73,877.99,1267.56,877.18,1266.61z"/>
		<path class="st3" d="M922.42,1263.71c-2.24,0-4.28,0.56-6.12,1.68c-1.84,1.12-3.43,2.65-4.76,4.61l-0.18-5.2
			c-0.02-0.4-0.22-0.6-0.6-0.6H910v40.59h1.6v-15.35c2.2,3.28,5.39,4.93,9.58,4.93c2.14,0,4.01-0.4,5.64-1.19
			c1.62-0.8,2.98-1.89,4.08-3.28c1.1-1.39,1.92-3.02,2.48-4.9c0.55-1.87,0.83-3.9,0.83-6.07c0-5.14-1.02-8.96-3.07-11.46
			C929.1,1264.96,926.19,1263.71,922.42,1263.71z M931.85,1284.57c-0.48,1.73-1.21,3.23-2.18,4.5c-0.97,1.27-2.18,2.26-3.63,2.98
			c-1.45,0.72-3.15,1.07-5.11,1.07c-1.98,0-3.72-0.4-5.23-1.19c-1.51-0.8-2.88-2.17-4.11-4.12v-16.32c1.33-2.04,2.89-3.63,4.67-4.78
			c1.78-1.15,3.72-1.72,5.82-1.72c3.4,0,6,1.14,7.8,3.42c1.79,2.28,2.69,5.78,2.69,10.52
			C932.58,1280.95,932.34,1282.83,931.85,1284.57z"/>
		<rect x="963.37" y="1250.29" class="st3" width="1.57" height="43.7"/>
		<path class="st3" d="M1015.45,1267.05c-1.05-1.1-2.27-1.93-3.67-2.49c-1.4-0.56-2.91-0.85-4.52-0.85c-2.08,0-3.93,0.36-5.56,1.09
			c-1.63,0.73-3.01,1.74-4.14,3.05c-1.13,1.31-1.99,2.87-2.58,4.67c-0.59,1.8-0.89,3.79-0.89,5.97c0,2.52,0.31,4.76,0.94,6.72
			s1.52,3.62,2.67,4.97c1.16,1.35,2.56,2.38,4.2,3.1c1.64,0.72,3.48,1.07,5.52,1.07c1.15,0,2.27-0.12,3.37-0.35
			c1.1-0.23,2.12-0.53,3.05-0.91s1.77-0.8,2.49-1.28c0.73-0.48,1.29-0.98,1.69-1.48l-0.39-0.45c-0.1-0.12-0.23-0.18-0.39-0.18
			c-0.12,0-0.4,0.18-0.83,0.53c-0.43,0.35-1.04,0.74-1.83,1.16c-0.79,0.42-1.76,0.81-2.93,1.16c-1.17,0.35-2.55,0.53-4.14,0.53
			c-1.79,0-3.42-0.32-4.88-0.95c-1.46-0.64-2.7-1.57-3.73-2.8c-1.03-1.23-1.82-2.75-2.39-4.56c-0.56-1.81-0.85-3.91-0.85-6.29
			c0-0.22,0-0.43,0-0.62c0-0.19,0.01-0.39,0.03-0.59h22.58c0.36,0,0.54-0.21,0.54-0.63c0-2.08-0.3-3.92-0.89-5.53
			C1017.32,1269.51,1016.5,1268.15,1015.45,1267.05z M995.77,1276.22c0.18-1.71,0.57-3.26,1.16-4.65c0.59-1.39,1.38-2.58,2.34-3.57
			c0.97-0.99,2.12-1.75,3.46-2.28c1.34-0.53,2.86-0.8,4.55-0.8c1.43,0,2.76,0.25,3.99,0.76c1.23,0.5,2.29,1.24,3.19,2.21
			c0.9,0.97,1.6,2.15,2.12,3.55c0.51,1.4,0.77,3,0.77,4.79H995.77z"/>
		<path class="st3" d="M1060.27,1290.88c-0.12,0-0.31,0.12-0.57,0.36c-0.26,0.24-0.6,0.5-1.03,0.79c-0.42,0.28-0.93,0.54-1.53,0.79
			c-0.59,0.24-1.28,0.36-2.07,0.36c-0.65,0-1.24-0.1-1.8-0.29c-0.55-0.19-1.03-0.5-1.44-0.92c-0.4-0.42-0.73-0.96-0.97-1.62
			c-0.24-0.65-0.36-1.45-0.36-2.37v-21.43h9.85v-1.21h-9.85v-12h-0.66c-0.14,0-0.25,0.06-0.33,0.17c-0.08,0.11-0.13,0.23-0.15,0.35
			l-0.45,11.48l-5.23,0.21v0.54c0,0.3,0.19,0.45,0.57,0.45h4.65v21.49c0,2.26,0.52,3.89,1.57,4.91c1.05,1.02,2.5,1.53,4.35,1.53
			c0.6,0,1.2-0.07,1.78-0.21c0.58-0.14,1.15-0.34,1.69-0.59c0.54-0.25,1.04-0.55,1.5-0.89s0.85-0.72,1.19-1.15l-0.39-0.57
			C1060.48,1290.94,1060.37,1290.88,1060.27,1290.88z"/>
		<path class="st3" d="M1106.9,1267.05c-1.05-1.1-2.27-1.93-3.67-2.49c-1.4-0.56-2.91-0.85-4.52-0.85c-2.08,0-3.93,0.36-5.56,1.09
			c-1.63,0.73-3.01,1.74-4.14,3.05c-1.13,1.31-1.99,2.87-2.58,4.67c-0.59,1.8-0.89,3.79-0.89,5.97c0,2.52,0.31,4.76,0.94,6.72
			s1.52,3.62,2.67,4.97c1.16,1.35,2.56,2.38,4.2,3.1c1.64,0.72,3.48,1.07,5.52,1.07c1.15,0,2.27-0.12,3.37-0.35
			c1.1-0.23,2.12-0.53,3.05-0.91c0.94-0.37,1.77-0.8,2.49-1.28c0.73-0.48,1.29-0.98,1.69-1.48l-0.39-0.45
			c-0.1-0.12-0.23-0.18-0.39-0.18c-0.12,0-0.4,0.18-0.83,0.53c-0.43,0.35-1.04,0.74-1.83,1.16c-0.79,0.42-1.76,0.81-2.93,1.16
			c-1.17,0.35-2.55,0.53-4.14,0.53c-1.79,0-3.42-0.32-4.88-0.95c-1.46-0.64-2.7-1.57-3.73-2.8c-1.03-1.23-1.82-2.75-2.39-4.56
			c-0.56-1.81-0.85-3.91-0.85-6.29c0-0.22,0-0.43,0-0.62c0-0.19,0.01-0.39,0.03-0.59h22.58c0.36,0,0.54-0.21,0.54-0.63
			c0-2.08-0.3-3.92-0.89-5.53C1108.77,1269.51,1107.95,1268.15,1106.9,1267.05z M1087.23,1276.22c0.18-1.71,0.57-3.26,1.16-4.65
			c0.59-1.39,1.38-2.58,2.34-3.57c0.97-0.99,2.12-1.75,3.46-2.28c1.34-0.53,2.86-0.8,4.55-0.8c1.43,0,2.76,0.25,3.99,0.76
			c1.23,0.5,2.29,1.24,3.19,2.21c0.9,0.97,1.6,2.15,2.12,3.55s0.77,3,0.77,4.79H1087.23z"/>
		<path class="st3" d="M1208.37,1288.6c1.18-1.26,2.18-2.69,3.01-4.29c0.83-1.6,1.46-3.37,1.91-5.32c0.44-1.94,0.66-4.02,0.66-6.24
			c0-3.32-0.48-6.33-1.45-9.01c-0.97-2.68-2.33-4.96-4.08-6.84c-1.75-1.88-3.85-3.33-6.29-4.35c-2.44-1.02-5.14-1.53-8.1-1.53
			c-2.92,0-5.6,0.51-8.04,1.54c-2.44,1.03-4.53,2.48-6.29,4.37c-1.75,1.88-3.11,4.17-4.08,6.84c-0.97,2.68-1.45,5.67-1.45,8.98
			c0,3.32,0.48,6.32,1.45,8.99c0.97,2.67,2.33,4.95,4.08,6.83c1.75,1.88,3.85,3.33,6.29,4.34c2.44,1.01,5.12,1.51,8.04,1.51
			c1.65,0,3.22-0.16,4.72-0.48c1.49-0.32,2.9-0.8,4.23-1.42l10,10.73c0.28,0.28,0.66,0.42,1.15,0.42h1.42l-11.18-11.88
			C1205.86,1290.92,1207.19,1289.86,1208.37,1288.6z M1201.42,1291.61c-2.23,0.93-4.69,1.39-7.39,1.39c-2.66,0-5.1-0.46-7.33-1.39
			c-2.23-0.93-4.14-2.26-5.74-3.99c-1.6-1.73-2.85-3.85-3.75-6.36c-0.9-2.51-1.34-5.34-1.34-8.51c0-3.16,0.45-6,1.34-8.51
			c0.9-2.51,2.15-4.64,3.75-6.39c1.6-1.75,3.52-3.09,5.74-4.02c2.23-0.93,4.67-1.39,7.33-1.39c2.7,0,5.16,0.46,7.39,1.39
			c2.22,0.93,4.14,2.27,5.74,4.02c1.6,1.75,2.84,3.88,3.72,6.39c0.88,2.51,1.32,5.34,1.32,8.51c0,3.16-0.44,6-1.32,8.51
			c-0.88,2.51-2.12,4.63-3.72,6.36C1205.56,1289.35,1203.65,1290.68,1201.42,1291.61z"/>
		<path class="st3" d="M1258.63,1266.58c-0.76-0.93-1.71-1.64-2.86-2.13c-1.15-0.49-2.5-0.74-4.05-0.74c-2.1,0-3.96,0.4-5.59,1.21
			c-1.63,0.81-3.19,1.98-4.68,3.51l0.27,0.42c0.16,0.22,0.34,0.33,0.54,0.33c0.22,0,0.55-0.22,0.98-0.65
			c0.43-0.43,1.01-0.92,1.74-1.45c0.73-0.53,1.63-1.02,2.72-1.45c1.09-0.43,2.39-0.65,3.9-0.65c2.54,0,4.45,0.83,5.74,2.48
			c1.29,1.65,1.93,3.97,1.93,6.95v3.54c-3.36,0.08-6.27,0.35-8.7,0.8s-4.45,1.07-6.04,1.84c-1.59,0.78-2.76,1.7-3.52,2.77
			c-0.76,1.07-1.13,2.26-1.13,3.57c0,1.35,0.23,2.5,0.68,3.46c0.45,0.96,1.05,1.74,1.8,2.34c0.74,0.6,1.58,1.05,2.51,1.33
			c0.93,0.28,1.86,0.42,2.81,0.42c1.29,0,2.47-0.13,3.54-0.39c1.07-0.26,2.06-0.63,2.99-1.1c0.93-0.47,1.8-1.05,2.63-1.74
			c0.83-0.68,1.65-1.45,2.48-2.3l0.3,4.41c0.06,0.42,0.29,0.64,0.7,0.64h0.54v-19.58c0-1.65-0.18-3.14-0.54-4.46
			C1259.95,1268.63,1259.39,1267.51,1258.63,1266.58z M1259.28,1287.71c-0.72,0.77-1.48,1.49-2.27,2.18
			c-0.79,0.69-1.63,1.28-2.54,1.78c-0.91,0.5-1.89,0.9-2.96,1.19c-1.07,0.29-2.25,0.44-3.54,0.44c-0.83,0-1.63-0.13-2.42-0.38
			c-0.79-0.25-1.49-0.64-2.1-1.18c-0.61-0.53-1.11-1.2-1.48-2.01c-0.37-0.81-0.56-1.76-0.56-2.87c0-2.38,1.45-4.22,4.37-5.53
			c2.91-1.31,7.41-2.07,13.49-2.27V1287.71z"/>
		<path class="st3" d="M1328.12,1264.35c-0.13,0.1-0.23,0.23-0.29,0.39l-8.49,25.78c-0.1,0.34-0.19,0.66-0.27,0.95
			c-0.08,0.29-0.16,0.59-0.24,0.89c-0.06-0.3-0.14-0.6-0.23-0.91c-0.09-0.3-0.19-0.61-0.29-0.94l-8.79-26.05
			c-0.1-0.28-0.28-0.42-0.54-0.42h-0.57c-0.24,0-0.41,0.14-0.51,0.42l-8.88,26.05c-0.1,0.32-0.2,0.63-0.29,0.92
			c-0.09,0.29-0.18,0.59-0.26,0.89c-0.06-0.3-0.13-0.6-0.2-0.89c-0.07-0.29-0.16-0.6-0.26-0.92l-8.49-25.78
			c-0.04-0.12-0.12-0.24-0.24-0.36c-0.12-0.12-0.29-0.18-0.51-0.18h-1.12l10.12,29.8h1c0.2,0,0.35-0.14,0.45-0.42l9.1-26.32
			c0.14-0.4,0.26-0.82,0.36-1.24c0.1,0.42,0.22,0.84,0.36,1.24l8.98,26.32c0.1,0.28,0.26,0.42,0.48,0.42h1.06l10.09-29.8h-1.09
			C1328.39,1264.19,1328.25,1264.25,1328.12,1264.35z"/>
		<path class="st3" d="M1392.02,1266.61c-0.81-0.95-1.79-1.67-2.95-2.16c-1.16-0.49-2.45-0.74-3.88-0.74c-1.07,0-2.1,0.16-3.11,0.47
			c-1.01,0.31-1.93,0.8-2.78,1.45c-0.85,0.66-1.59,1.47-2.22,2.45c-0.64,0.98-1.1,2.13-1.41,3.46c-0.4-2.48-1.27-4.4-2.6-5.77
			c-1.33-1.37-3.13-2.06-5.41-2.06c-1.91,0-3.66,0.55-5.24,1.66c-1.58,1.11-2.96,2.59-4.13,4.44l-0.18-5.02
			c-0.02-0.4-0.22-0.6-0.6-0.6h-0.76v29.8h1.6v-22.67c1.15-1.97,2.48-3.53,3.99-4.65s3.17-1.69,4.99-1.69c2.42,0,4.25,0.87,5.5,2.6
			c1.25,1.73,1.87,4.18,1.87,7.34v19.07h1.6v-19.07c0-1.65,0.24-3.1,0.72-4.34c0.48-1.24,1.12-2.28,1.92-3.11
			c0.8-0.84,1.71-1.46,2.75-1.87c1.04-0.41,2.12-0.62,3.25-0.62c2.56,0,4.53,0.85,5.91,2.55c1.38,1.7,2.07,4.17,2.07,7.39v19.07h1.6
			v-19.07c0-1.81-0.22-3.41-0.65-4.8C1393.45,1268.73,1392.83,1267.56,1392.02,1266.61z"/>
		<path class="st3" d="M1427.42,1251.97c-0.19-0.19-0.41-0.34-0.66-0.45c-0.25-0.11-0.51-0.17-0.77-0.17
			c-0.56,0-1.05,0.21-1.47,0.62c-0.41,0.41-0.62,0.9-0.62,1.47c0,0.54,0.21,1.02,0.62,1.44c0.41,0.41,0.9,0.62,1.47,0.62
			c0.26,0,0.52-0.06,0.77-0.17s0.47-0.26,0.66-0.45c0.19-0.19,0.35-0.41,0.47-0.65c0.12-0.24,0.18-0.5,0.18-0.79
			s-0.06-0.55-0.18-0.8C1427.77,1252.38,1427.62,1252.16,1427.42,1251.97z"/>
		<rect x="1425.2" y="1264.19" class="st3" width="1.57" height="29.8"/>
		<path class="st3" d="M1508.98,1280.36c-0.81-0.56-1.72-1.04-2.75-1.42c-1.03-0.38-2.08-0.74-3.14-1.07
			c-1.07-0.33-2.12-0.66-3.14-1c-1.03-0.33-1.94-0.74-2.75-1.21c-0.81-0.47-1.46-1.05-1.95-1.74c-0.49-0.68-0.74-1.53-0.74-2.54
			c0-0.85,0.19-1.66,0.57-2.45c0.38-0.79,0.93-1.47,1.63-2.06c0.7-0.58,1.55-1.05,2.52-1.41c0.98-0.35,2.06-0.53,3.25-0.53
			c1.29,0,2.37,0.14,3.25,0.41c0.88,0.27,1.61,0.56,2.19,0.88c0.58,0.31,1.04,0.6,1.38,0.88c0.33,0.27,0.59,0.41,0.77,0.41
			c0.2,0,0.35-0.09,0.45-0.27l0.33-0.51c-1.19-1.05-2.45-1.81-3.78-2.3c-1.33-0.48-2.86-0.72-4.59-0.72c-1.43,0-2.72,0.21-3.88,0.63
			c-1.16,0.42-2.15,0.99-2.98,1.71c-0.83,0.72-1.47,1.54-1.92,2.48c-0.45,0.94-0.68,1.91-0.68,2.92c0,1.21,0.25,2.22,0.74,3.02
			c0.49,0.81,1.14,1.49,1.95,2.04c0.81,0.55,1.72,1.02,2.75,1.39c1.03,0.37,2.07,0.72,3.14,1.04c1.07,0.32,2.12,0.66,3.14,1
			c1.03,0.34,1.94,0.76,2.75,1.25c0.81,0.49,1.46,1.1,1.95,1.83c0.49,0.73,0.74,1.63,0.74,2.72c0,1.03-0.18,2-0.54,2.92
			c-0.36,0.92-0.9,1.72-1.62,2.4c-0.72,0.68-1.6,1.22-2.66,1.62c-1.06,0.39-2.28,0.59-3.67,0.59c-1.41,0-2.6-0.17-3.57-0.5
			c-0.97-0.33-1.77-0.7-2.4-1.1c-0.64-0.4-1.14-0.77-1.51-1.1c-0.37-0.33-0.66-0.5-0.86-0.5c-0.16,0-0.28,0.03-0.35,0.08
			c-0.07,0.05-0.15,0.13-0.23,0.23l-0.39,0.51c0.6,0.54,1.23,1.04,1.87,1.48c0.64,0.44,1.34,0.82,2.09,1.13
			c0.74,0.31,1.55,0.55,2.42,0.72c0.87,0.17,1.83,0.26,2.9,0.26c1.59,0,3.01-0.23,4.25-0.7c1.24-0.46,2.29-1.1,3.14-1.92
			c0.86-0.82,1.51-1.77,1.95-2.86c0.44-1.09,0.66-2.26,0.66-3.51c0-1.21-0.25-2.23-0.74-3.05
			C1510.43,1281.62,1509.79,1280.93,1508.98,1280.36z"/>
		<path class="st3" d="M1561.32,1267.93c-1.13-1.34-2.51-2.38-4.16-3.11c-1.64-0.74-3.52-1.1-5.64-1.1c-2.12,0-3.99,0.37-5.64,1.1
			c-1.64,0.74-3.03,1.77-4.16,3.11c-1.13,1.34-1.98,2.96-2.57,4.85c-0.58,1.89-0.88,4-0.88,6.32c0,2.32,0.29,4.42,0.88,6.3
			c0.58,1.88,1.44,3.49,2.57,4.82c1.13,1.33,2.51,2.35,4.16,3.07c1.64,0.72,3.52,1.07,5.64,1.07c2.12,0,3.99-0.36,5.64-1.07
			c1.64-0.71,3.03-1.74,4.16-3.07c1.13-1.33,1.98-2.94,2.57-4.82c0.58-1.88,0.88-3.98,0.88-6.3c0-2.32-0.29-4.42-0.88-6.32
			C1563.31,1270.89,1562.45,1269.27,1561.32,1267.93z M1562.44,1284.84c-0.48,1.71-1.21,3.18-2.19,4.41s-2.19,2.18-3.64,2.84
			c-1.45,0.66-3.14,1-5.08,1c-1.93,0-3.63-0.33-5.08-1c-1.45-0.66-2.66-1.61-3.64-2.84s-1.71-2.7-2.19-4.41
			c-0.48-1.71-0.72-3.63-0.72-5.74c0-2.12,0.24-4.04,0.72-5.77c0.48-1.73,1.21-3.22,2.19-4.46c0.98-1.24,2.19-2.2,3.64-2.87
			c1.45-0.68,3.14-1.01,5.08-1.01c1.93,0,3.63,0.34,5.08,1.01c1.45,0.68,2.66,1.63,3.64,2.87c0.98,1.24,1.71,2.72,2.19,4.46
			c0.48,1.73,0.73,3.66,0.73,5.77C1563.17,1281.21,1562.93,1283.13,1562.44,1284.84z"/>
		<rect x="1593.93" y="1250.29" class="st3" width="1.57" height="43.7"/>
		<path class="st3" d="M1647.27,1286.77c-1.45,2.01-3.1,3.59-4.94,4.73c-1.84,1.14-3.84,1.71-6,1.71c-1.45,0-2.72-0.23-3.79-0.68
			c-1.08-0.45-1.97-1.11-2.69-1.96c-0.72-0.86-1.24-1.9-1.59-3.13s-0.51-2.62-0.51-4.17v-19.07h-1.6v19.07
			c0,1.75,0.21,3.32,0.62,4.72c0.41,1.39,1.03,2.56,1.84,3.52c0.82,0.96,1.84,1.69,3.08,2.21c1.24,0.51,2.68,0.77,4.34,0.77
			c2.3,0,4.4-0.57,6.32-1.71c1.91-1.14,3.58-2.66,4.99-4.58l0.15,5.2c0.06,0.4,0.27,0.6,0.63,0.6h0.73v-29.8h-1.57V1286.77z"/>
		<path class="st3" d="M1692.49,1290.88c-0.12,0-0.31,0.12-0.57,0.36c-0.26,0.24-0.6,0.5-1.03,0.79c-0.42,0.28-0.93,0.54-1.53,0.79
			c-0.59,0.24-1.28,0.36-2.07,0.36c-0.65,0-1.24-0.1-1.8-0.29c-0.55-0.19-1.03-0.5-1.44-0.92c-0.4-0.42-0.72-0.96-0.97-1.62
			c-0.24-0.65-0.36-1.45-0.36-2.37v-21.43h9.85v-1.21h-9.85v-12h-0.66c-0.14,0-0.25,0.06-0.33,0.17s-0.13,0.23-0.15,0.35
			l-0.45,11.48l-5.23,0.21v0.54c0,0.3,0.19,0.45,0.57,0.45h4.65v21.49c0,2.26,0.52,3.89,1.57,4.91c1.05,1.02,2.5,1.53,4.35,1.53
			c0.6,0,1.2-0.07,1.78-0.21c0.58-0.14,1.15-0.34,1.69-0.59c0.54-0.25,1.04-0.55,1.5-0.89c0.45-0.34,0.85-0.72,1.19-1.15l-0.39-0.57
			C1692.7,1290.94,1692.59,1290.88,1692.49,1290.88z"/>
		<path class="st3" d="M1722.21,1251.97c-0.19-0.19-0.41-0.34-0.66-0.45c-0.25-0.11-0.51-0.17-0.77-0.17
			c-0.56,0-1.05,0.21-1.47,0.62c-0.41,0.41-0.62,0.9-0.62,1.47c0,0.54,0.21,1.02,0.62,1.44c0.41,0.41,0.9,0.62,1.47,0.62
			c0.26,0,0.52-0.06,0.77-0.17s0.47-0.26,0.66-0.45c0.19-0.19,0.35-0.41,0.47-0.65c0.12-0.24,0.18-0.5,0.18-0.79
			s-0.06-0.55-0.18-0.8C1722.56,1252.38,1722.4,1252.16,1722.21,1251.97z"/>
		<rect x="1719.99" y="1264.19" class="st3" width="1.57" height="29.8"/>
		<path class="st3" d="M1773.76,1267.93c-1.13-1.34-2.51-2.38-4.16-3.11c-1.64-0.74-3.52-1.1-5.64-1.1c-2.12,0-3.99,0.37-5.64,1.1
			c-1.64,0.74-3.03,1.77-4.16,3.11c-1.13,1.34-1.98,2.96-2.57,4.85c-0.58,1.89-0.88,4-0.88,6.32c0,2.32,0.29,4.42,0.88,6.3
			c0.58,1.88,1.44,3.49,2.57,4.82c1.13,1.33,2.51,2.35,4.16,3.07c1.64,0.72,3.52,1.07,5.64,1.07c2.12,0,3.99-0.36,5.64-1.07
			c1.64-0.71,3.03-1.74,4.16-3.07c1.13-1.33,1.98-2.94,2.57-4.82c0.58-1.88,0.88-3.98,0.88-6.3c0-2.32-0.29-4.42-0.88-6.32
			C1775.74,1270.89,1774.88,1269.27,1773.76,1267.93z M1774.87,1284.84c-0.48,1.71-1.21,3.18-2.19,4.41s-2.19,2.18-3.64,2.84
			c-1.45,0.66-3.14,1-5.08,1c-1.93,0-3.63-0.33-5.08-1s-2.66-1.61-3.64-2.84s-1.71-2.7-2.19-4.41c-0.48-1.71-0.72-3.63-0.72-5.74
			c0-2.12,0.24-4.04,0.72-5.77c0.48-1.73,1.21-3.22,2.19-4.46c0.98-1.24,2.19-2.2,3.64-2.87s3.14-1.01,5.08-1.01
			c1.93,0,3.63,0.34,5.08,1.01c1.45,0.68,2.66,1.63,3.64,2.87c0.98,1.24,1.71,2.72,2.19,4.46c0.48,1.73,0.73,3.66,0.73,5.77
			C1775.6,1281.21,1775.36,1283.13,1774.87,1284.84z"/>
		<path class="st3" d="M1828.11,1270.21c-0.41-1.39-1.03-2.56-1.84-3.52c-0.82-0.96-1.84-1.69-3.08-2.21
			c-1.24-0.51-2.69-0.77-4.34-0.77c-2.28,0-4.38,0.56-6.3,1.69c-1.92,1.13-3.58,2.65-4.97,4.56l-0.18-5.17
			c-0.02-0.4-0.22-0.6-0.6-0.6h-0.76v29.8h1.6v-22.58c1.43-2.02,3.07-3.59,4.91-4.73c1.84-1.14,3.85-1.71,6.03-1.71
			c1.45,0,2.71,0.23,3.78,0.68c1.07,0.45,1.96,1.11,2.67,1.96c0.72,0.86,1.24,1.9,1.59,3.13c0.34,1.23,0.51,2.62,0.51,4.17v19.07
			h1.6v-19.07C1828.73,1273.17,1828.52,1271.6,1828.11,1270.21z"/>
	</g>
</g>
<g>
	<linearGradient id="SVGID_2_" gradientUnits="userSpaceOnUse" x1="312.5547" y1="1261.9161" x2="1687.4453" y2="1261.9161">
		<stop  offset="0" style="stop-color:#00AEEF"/>
		<stop  offset="1" style="stop-color:#0B7ED3"/>
	</linearGradient>
	<path class="st7" d="M1483.83,1713.33c125.76-124.53,203.62-297.32,203.62-488.31c0-379.67-307.75-687.43-687.43-687.43
		s-687.47,307.75-687.47,687.43s307.79,687.43,687.47,687.43c112.98,0,219.58-27.24,313.61-75.54c-0.28,3.62-0.44,7.29-0.44,10.99
		c0,76.42,61.92,138.35,138.35,138.35c76.42,0,138.35-61.93,138.35-138.35C1589.88,1782.58,1544.64,1727.87,1483.83,1713.33z
		 M999.98,1650.29c-234.48,0-425.27-190.79-425.27-425.27S765.5,799.75,999.98,799.75c234.52,0,425.31,190.79,425.31,425.27
		S1234.5,1650.29,999.98,1650.29z"/>
	<g>
		<g id="Layer_5_2_">
			<g>
				<path class="st3" d="M1286.07,325.66c0,31.54,0,126.24,0,126.24v9c0,28.31-21.62,57.58-57.94,81.96
					c-71-24.01-147.07-37.04-226.08-37.04c-74.07,0-145.47,11.43-212.62,32.66c-32.46-23.5-51.61-50.93-51.61-77.58v-9
					c0,0,0-89.28,0-119.03c0-26.2,18.88-14.61,18.88-14.61l209.07,128.19c12.78,7.88,29.19,12.19,46.19,12.19
					c16.96,0,33.37-4.3,46.16-12.19l214.53-131.54C1272.65,314.91,1286.07,304.64,1286.07,325.66z"/>
				<path class="st3" d="M1359.65,216.25c16.06-9.85,16.06-25.97,0-35.83L1041.15,21.15c-16.06-9.85-42.35-9.85-58.42,0
					L664.25,180.42c-16.06,9.85-16.06,25.97,0,35.83l318.49,195.33c16.06,9.85,42.35,9.85,58.42,0L1359.65,216.25z"/>
				<path class="st3" d="M1346.48,505.78c0-53.93,0-215.73,0-215.73s0.15-10.22-5.91-6.84c-4.86,2.71-16.79,9.35-20.99,13.01
					c-4.85,4.21-3.76,13.68-3.76,13.68s0,146.92,0,195.89c0,2.78-2.39,4.11-3.53,4.78c-11.01,6.47-18.41,18.42-18.41,32.12
					c0,20.58,16.68,37.27,37.27,37.27c20.58,0,37.27-16.69,37.27-37.27c0-13.75-7.46-25.73-18.54-32.19
					C1348.78,509.84,1346.48,508.56,1346.48,505.78z"/>
			</g>
		</g>
	</g>
</g>
<rect x="784.25" y="-259.98" class="st4" width="202.46" height="202.46"/>
<rect x="1050.9" y="-259.98" class="st8" width="202.46" height="202.46"/>
</svg>
