<svg width="386" height="232" viewBox="0 0 386 232" fill="none" xmlns="http://www.w3.org/2000/svg">
<g clip-path="url(#clip0_10_95)">
<path d="M386 181.044C386.008 182.597 385.398 184.091 384.303 185.195C383.208 186.3 381.718 186.925 380.162 186.933H123.293C122.522 186.929 121.76 186.773 121.049 186.475C120.339 186.177 119.694 185.742 119.152 185.195C118.61 184.649 118.181 184 117.889 183.288C117.598 182.576 117.45 181.813 117.454 181.044V5.88928C117.446 4.33547 118.057 2.84208 119.152 1.73762C120.247 0.63317 121.736 0.00812572 123.293 0H380.162C380.932 0.00400199 381.695 0.159505 382.405 0.457626C383.116 0.755748 383.761 1.19065 384.303 1.73751C384.845 2.28436 385.274 2.93246 385.565 3.6448C385.856 4.35713 386.004 5.11975 386 5.88912V5.88929V181.044Z" fill="#E6E6E6"/>
<path d="M382.97 178.175C382.97 179.686 382.369 181.134 381.299 182.202C380.229 183.27 378.778 183.87 377.266 183.87H126.365C124.852 183.87 123.401 183.27 122.331 182.202C121.261 181.134 120.66 179.686 120.66 178.175V8.83774C120.66 7.32746 121.261 5.87905 122.331 4.81113C123.401 3.7432 124.852 3.14325 126.365 3.14325H377.277C378.788 3.14628 380.236 3.74758 381.303 4.81517C382.37 5.88277 382.97 7.32945 382.97 8.83774V178.175Z" fill="white"/>
<path d="M134.07 10.4953H369.828C370.726 10.4953 371.587 10.8514 372.222 11.4853C372.857 12.1192 373.214 12.9789 373.214 13.8753V172.481C373.214 173.377 372.857 174.237 372.222 174.871C371.587 175.505 370.726 175.861 369.828 175.861H134.07C133.172 175.861 132.311 175.505 131.676 174.871C131.041 174.237 130.684 173.377 130.684 172.481V13.8753C130.684 12.9789 131.041 12.1192 131.676 11.4853C132.311 10.8514 133.172 10.4953 134.07 10.4953Z" fill="#E6E6E6"/>
<path d="M137.054 14.2993H366.588C367.486 14.2993 368.347 14.6554 368.982 15.2892C369.617 15.9231 369.973 16.7828 369.973 17.6793V167.821C369.973 168.718 369.617 169.578 368.982 170.211C368.347 170.845 367.486 171.201 366.588 171.201H137.054C136.156 171.201 135.295 170.845 134.66 170.211C134.025 169.578 133.668 168.718 133.668 167.821V17.6793C133.668 16.7828 134.025 15.9231 134.66 15.2892C135.295 14.6554 136.156 14.2993 137.054 14.2993Z" fill="white"/>
<path d="M299.12 118.6C298.217 118.599 297.324 118.409 296.499 118.042C296.307 117.957 296.123 117.853 295.952 117.732L279.27 106.01C278.424 105.416 277.734 104.627 277.257 103.71C276.781 102.794 276.532 101.776 276.531 100.743V84.7573C276.532 83.7245 276.781 82.7069 277.257 81.7902C277.734 80.8736 278.424 80.0848 279.27 79.4903L295.952 67.7684C296.123 67.6473 296.307 67.5434 296.499 67.4584C297.481 67.0222 298.557 66.8382 299.629 66.9228C300.701 67.0075 301.735 67.3582 302.637 67.9431C303.539 68.528 304.28 69.3285 304.793 70.272C305.306 71.2155 305.574 72.272 305.574 73.3455V112.155C305.574 113.864 304.894 115.503 303.684 116.711C302.474 117.919 300.832 118.598 299.12 118.598L299.12 118.6Z" fill="#3F3D56"/>
<path d="M261.787 121.743H215.262C205.77 121.735 198.077 115.61 198.067 108.052V77.4487C198.077 69.8906 205.77 63.7655 215.262 63.7578H261.909C271.333 63.7666 278.97 69.8478 278.981 77.3521V108.052C278.972 115.61 271.279 121.735 261.787 121.743Z" fill="#3F3D56"/>
<path d="M344.665 161.547C352.307 161.547 358.502 155.362 358.502 147.734C358.502 140.105 352.307 133.92 344.665 133.92C337.023 133.92 330.828 140.105 330.828 147.734C330.828 155.362 337.023 161.547 344.665 161.547Z" fill="#E6E6E6"/>
<path d="M351.852 147.486L340.822 141.129C340.779 141.104 340.729 141.091 340.679 141.091C340.629 141.091 340.579 141.104 340.536 141.129C340.492 141.154 340.456 141.19 340.431 141.234C340.406 141.277 340.393 141.326 340.393 141.377V154.091C340.393 154.141 340.406 154.19 340.431 154.234C340.456 154.277 340.492 154.313 340.536 154.338C340.579 154.363 340.629 154.376 340.679 154.376C340.729 154.376 340.779 154.363 340.822 154.338L351.852 147.981C351.895 147.956 351.932 147.92 351.957 147.877C351.982 147.833 351.995 147.784 351.995 147.734C351.995 147.683 351.982 147.634 351.957 147.591C351.932 147.547 351.895 147.511 351.852 147.486L340.822 141.129C340.779 141.104 340.729 141.091 340.679 141.091C340.629 141.091 340.579 141.104 340.536 141.129C340.492 141.154 340.456 141.19 340.431 141.234C340.406 141.277 340.393 141.326 340.393 141.377V154.091C340.393 154.141 340.406 154.19 340.431 154.234C340.456 154.277 340.492 154.313 340.536 154.338C340.579 154.363 340.629 154.376 340.679 154.376C340.729 154.376 340.779 154.363 340.822 154.338L351.852 147.981C351.895 147.956 351.932 147.92 351.957 147.877C351.982 147.833 351.995 147.784 351.995 147.734C351.995 147.683 351.982 147.634 351.957 147.591C351.932 147.547 351.895 147.511 351.852 147.486Z" fill="white"/>
<path d="M326.699 202.049C326.707 203.603 326.097 205.097 325.002 206.201C323.907 207.306 322.417 207.931 320.861 207.939H63.9917C63.221 207.935 62.4586 207.779 61.7481 207.481C61.0376 207.183 60.3929 206.748 59.8507 206.201C59.3086 205.654 58.8797 205.006 58.5885 204.294C58.2972 203.582 58.1494 202.819 58.1534 202.05V26.8951C58.1453 25.3413 58.7558 23.8479 59.8506 22.7435C60.9455 21.639 62.435 21.014 63.9915 21.0058H320.861C321.631 21.0098 322.394 21.1653 323.104 21.4635C323.815 21.7616 324.459 22.1965 325.002 22.7434C325.544 23.2902 325.973 23.9383 326.264 24.6506C326.555 25.363 326.703 26.1256 326.699 26.895V26.8951V202.049Z" fill="#E6E6E6"/>
<path d="M323.669 199.181C323.669 200.691 323.068 202.14 321.998 203.208C320.928 204.276 319.477 204.876 317.964 204.876H67.0637C65.5509 204.876 64.0999 204.276 63.0302 203.208C61.9604 202.14 61.3594 200.691 61.3594 199.181V29.8436C61.3594 28.3333 61.9604 26.8849 63.0302 25.817C64.0999 24.749 65.5509 24.1491 67.0637 24.1491H317.976C319.487 24.1521 320.935 24.7534 322.002 25.821C323.069 26.8886 323.669 28.3353 323.669 29.8436V199.181Z" fill="white"/>
<path d="M74.7692 31.5011H310.527C311.425 31.5011 312.286 31.8572 312.921 32.4911C313.556 33.125 313.913 33.9847 313.913 34.8812V193.487C313.913 194.383 313.556 195.243 312.921 195.877C312.286 196.511 311.425 196.867 310.527 196.867H74.7692C73.8712 196.867 73.01 196.511 72.375 195.877C71.74 195.243 71.3833 194.383 71.3833 193.487V34.8812C71.3833 33.9847 71.74 33.125 72.375 32.4911C73.01 31.8572 73.8712 31.5011 74.7692 31.5011Z" fill="#E6E6E6"/>
<path d="M77.7533 35.3051H307.286C308.184 35.3051 309.046 35.6612 309.681 36.2951C310.316 36.929 310.672 37.7887 310.672 38.6851V188.827C310.672 189.724 310.316 190.583 309.681 191.217C309.046 191.851 308.184 192.207 307.286 192.207H77.7533C76.8553 192.207 75.9941 191.851 75.3591 191.217C74.7242 190.583 74.3674 189.724 74.3674 188.827V38.6851C74.3674 37.7887 74.7242 36.929 75.3591 36.2951C75.9941 35.6612 76.8553 35.3051 77.7533 35.3051Z" fill="white"/>
<path d="M239.819 139.606C238.916 139.605 238.023 139.415 237.197 139.048C237.005 138.963 236.822 138.859 236.651 138.738L219.969 127.016C219.123 126.422 218.433 125.633 217.956 124.716C217.48 123.8 217.231 122.782 217.23 121.749V105.763C217.231 104.73 217.48 103.713 217.956 102.796C218.433 101.879 219.123 101.091 219.969 100.496L236.651 88.7742C236.822 88.6531 237.005 88.5493 237.197 88.4642C238.18 88.0281 239.256 87.844 240.328 87.9286C241.4 88.0133 242.434 88.364 243.336 88.9489C244.238 89.5338 244.979 90.3344 245.492 91.2778C246.005 92.2213 246.273 93.2778 246.273 94.3513V133.161C246.273 134.87 245.593 136.509 244.383 137.717C243.173 138.925 241.531 139.604 239.819 139.604L239.819 139.606Z" fill="#3F3D56"/>
<path d="M202.486 142.749H155.961C146.469 142.741 138.776 136.616 138.766 129.058V98.4545C138.776 90.8965 146.469 84.7714 155.961 84.7636H202.608C212.032 84.7725 219.669 90.8537 219.68 98.3579V129.058C219.671 136.616 211.978 142.741 202.486 142.749Z" fill="#3F3D56"/>
<path d="M285.364 182.553C293.006 182.553 299.201 176.368 299.201 168.739C299.201 161.111 293.006 154.926 285.364 154.926C277.722 154.926 271.527 161.111 271.527 168.739C271.527 176.368 277.722 182.553 285.364 182.553Z" fill="#E6E6E6"/>
<path d="M292.551 168.492L281.521 162.135C281.478 162.11 281.428 162.097 281.378 162.097C281.328 162.097 281.278 162.11 281.235 162.135C281.191 162.16 281.155 162.196 281.13 162.24C281.105 162.283 281.092 162.332 281.092 162.382V175.096C281.092 175.147 281.105 175.196 281.13 175.239C281.155 175.283 281.191 175.319 281.235 175.344C281.278 175.369 281.328 175.382 281.378 175.382C281.428 175.382 281.478 175.369 281.521 175.344L292.551 168.987C292.594 168.962 292.631 168.926 292.656 168.882C292.681 168.839 292.694 168.79 292.694 168.739C292.694 168.689 292.681 168.64 292.656 168.597C292.631 168.553 292.594 168.517 292.551 168.492L281.521 162.135C281.478 162.11 281.428 162.097 281.378 162.097C281.328 162.097 281.278 162.11 281.235 162.135C281.191 162.16 281.155 162.196 281.13 162.24C281.105 162.283 281.092 162.332 281.092 162.383V175.096C281.092 175.147 281.105 175.196 281.13 175.239C281.155 175.283 281.191 175.319 281.235 175.344C281.278 175.369 281.328 175.382 281.378 175.382C281.428 175.382 281.478 175.369 281.521 175.344L292.551 168.987C292.594 168.962 292.631 168.926 292.656 168.882C292.681 168.839 292.694 168.79 292.694 168.739C292.694 168.689 292.681 168.64 292.656 168.596C292.631 168.553 292.594 168.517 292.551 168.492Z" fill="white"/>
<path d="M268.546 226.111C268.554 227.665 267.943 229.158 266.848 230.262C265.754 231.367 264.264 231.992 262.708 232H5.83836C5.06766 231.996 4.30529 231.84 3.59479 231.542C2.88428 231.244 2.23956 230.809 1.69742 230.262C1.15529 229.716 0.72636 229.068 0.435129 228.355C0.143898 227.643 -0.00393036 226.88 8.03413e-05 226.111V50.9564C-0.00805841 49.4026 0.602453 47.9092 1.69731 46.8047C2.79217 45.7002 4.28169 45.0752 5.83819 45.0671H262.707C263.478 45.0711 264.24 45.2266 264.951 45.5247C265.661 45.8228 266.306 46.2577 266.848 46.8046C267.39 47.3514 267.819 47.9995 268.111 48.7119C268.402 49.4242 268.55 50.1868 268.546 50.9562V50.9564V226.111Z" fill="#E6E6E6"/>
<path d="M265.515 223.242C265.515 224.753 264.914 226.201 263.845 227.269C262.775 228.337 261.324 228.937 259.811 228.937H8.91043C7.39754 228.937 5.94661 228.337 4.87683 227.269C3.80705 226.201 3.20605 224.753 3.20605 223.242V53.9048C3.20605 52.3945 3.80705 50.9461 4.87683 49.8782C5.94661 48.8103 7.39754 48.2103 8.91043 48.2103H259.823C261.333 48.2134 262.781 48.8147 263.849 49.8822C264.916 50.9498 265.515 52.3965 265.515 53.9048V223.242Z" fill="white"/>
<path d="M16.6159 55.5624H252.374C253.272 55.5624 254.133 55.9185 254.768 56.5523C255.403 57.1862 255.76 58.046 255.76 58.9424V217.548C255.76 218.444 255.403 219.304 254.768 219.938C254.133 220.572 253.272 220.928 252.374 220.928H16.6159C15.7179 220.928 14.8567 220.572 14.2217 219.938C13.5867 219.304 13.23 218.444 13.23 217.548V58.9424C13.23 58.046 13.5867 57.1862 14.2217 56.5523C14.8567 55.9185 15.7179 55.5624 16.6159 55.5624Z" fill="#E6E6E6"/>
<path d="M19.6 59.3663H249.133C249.578 59.3663 250.018 59.4538 250.429 59.6236C250.84 59.7935 251.213 60.0425 251.527 60.3563C251.842 60.6702 252.091 61.0428 252.261 61.4529C252.431 61.863 252.519 62.3025 252.519 62.7464V212.889C252.519 213.332 252.431 213.772 252.261 214.182C252.091 214.592 251.842 214.965 251.527 215.279C251.213 215.592 250.84 215.841 250.429 216.011C250.018 216.181 249.578 216.269 249.133 216.269H19.6C18.702 216.269 17.8408 215.912 17.2058 215.279C16.5708 214.645 16.2141 213.785 16.2141 212.889V62.7464C16.2141 61.8499 16.5708 60.9902 17.2058 60.3563C17.8408 59.7224 18.702 59.3663 19.6 59.3663Z" fill="white"/>
<path d="M181.666 163.667C180.763 163.666 179.869 163.476 179.044 163.109C178.852 163.024 178.669 162.92 178.498 162.799L161.816 151.078C160.97 150.483 160.28 149.694 159.803 148.778C159.326 147.861 159.077 146.843 159.077 145.811V129.824C159.077 128.792 159.326 127.774 159.803 126.857C160.28 125.941 160.97 125.152 161.816 124.557L178.498 112.836C178.669 112.714 178.852 112.611 179.044 112.525C180.027 112.089 181.103 111.905 182.175 111.99C183.247 112.075 184.281 112.425 185.183 113.01C186.084 113.595 186.825 114.396 187.338 115.339C187.851 116.283 188.12 117.339 188.12 118.413V157.222C188.12 158.931 187.44 160.57 186.23 161.778C185.019 162.986 183.378 163.665 181.666 163.665L181.666 163.667Z" fill="#0079F7"/>
<path d="M144.333 166.81H97.8073C88.3152 166.802 80.6228 160.677 80.613 153.119V122.516C80.6228 114.958 88.3152 108.833 97.8073 108.825H144.454C153.879 108.834 161.516 114.915 161.527 122.419V153.119C161.517 160.677 153.825 166.802 144.333 166.81Z" fill="#0079F7"/>
<path d="M227.211 206.614C234.853 206.614 241.048 200.43 241.048 192.801C241.048 185.172 234.853 178.988 227.211 178.988C219.569 178.988 213.374 185.172 213.374 192.801C213.374 200.43 219.569 206.614 227.211 206.614Z" fill="#3F3D56"/>
<path d="M234.398 192.553L223.368 186.196C223.325 186.171 223.275 186.158 223.225 186.158C223.175 186.158 223.125 186.171 223.082 186.196C223.038 186.221 223.002 186.257 222.977 186.301C222.952 186.344 222.938 186.393 222.938 186.444V199.158C222.938 199.208 222.952 199.257 222.977 199.301C223.002 199.344 223.038 199.38 223.082 199.405C223.125 199.43 223.175 199.444 223.225 199.444C223.275 199.444 223.325 199.43 223.368 199.405L234.398 193.048C234.441 193.023 234.477 192.987 234.503 192.944C234.528 192.9 234.541 192.851 234.541 192.801C234.541 192.75 234.528 192.701 234.503 192.658C234.477 192.614 234.441 192.578 234.398 192.553L223.368 186.196C223.325 186.171 223.275 186.158 223.225 186.158C223.175 186.158 223.125 186.171 223.082 186.196C223.038 186.221 223.002 186.257 222.977 186.301C222.952 186.344 222.938 186.394 222.938 186.444V199.158C222.938 199.208 222.952 199.257 222.977 199.301C223.002 199.344 223.038 199.38 223.082 199.405C223.125 199.43 223.175 199.444 223.225 199.444C223.275 199.444 223.325 199.43 223.368 199.405L234.398 193.048C234.441 193.023 234.477 192.987 234.503 192.944C234.528 192.9 234.541 192.851 234.541 192.801C234.541 192.75 234.528 192.701 234.503 192.658C234.477 192.614 234.441 192.578 234.398 192.553Z" fill="white"/>
</g>
<defs>
<clipPath id="clip0_10_95">
<rect width="386" height="232" fill="white"/>
</clipPath>
</defs>
</svg>
