<svg width="32" height="33" viewBox="0 0 32 33" fill="none" xmlns="http://www.w3.org/2000/svg">
<path d="M16.2185 0.695328C7.64716 0.695328 0.673828 7.8679 0.673828 16.6841V23.3083C0.673828 24.9455 2.06818 26.2774 3.78276 26.2774H5.33722C5.74949 26.2774 6.14488 26.1089 6.4364 25.8091C6.72792 25.5092 6.89169 25.1026 6.89169 24.6785V16.4555C6.89169 16.0314 6.72792 15.6247 6.4364 15.3249C6.14488 15.025 5.74949 14.8566 5.33722 14.8566H3.92577C4.79005 8.66894 9.96642 3.89308 16.2185 3.89308C22.4705 3.89308 27.6469 8.66894 28.5112 14.8566H27.0997C26.6875 14.8566 26.2921 15.025 26.0006 15.3249C25.709 15.6247 25.5453 16.0314 25.5453 16.4555V26.2774C25.5453 28.0409 24.1509 29.4751 22.4363 29.4751H19.3274V27.8763H13.1096V32.6729H22.4363C25.8655 32.6729 28.6542 29.8045 28.6542 26.2774C30.3688 26.2774 31.7631 24.9455 31.7631 23.3083V16.6841C31.7631 7.8679 24.7898 0.695328 16.2185 0.695328Z" fill="white"/>
</svg>
